<svg width="64" height="125" viewBox="0 0 64 125" fill="none" xmlns="http://www.w3.org/2000/svg">
<path d="M10.4319 5.07159L6.11977 37.2904C4.53374 49.1406 5.50075 61.193 8.95591 72.6388V72.6388C11.3629 80.6124 12.5683 88.9002 12.5322 97.2291L12.4487 116.51" stroke="#5E8D4F" stroke-width="9" stroke-linecap="round"/>
<path d="M27.4204 87.9574C10.2388 95.5579 6.60161 102.3 10.4431 118.476C39.1216 113.645 41.4717 106.52 47.1464 94.2919C47.1464 94.2919 53.9611 68.3217 49.1087 73.6668C44.2564 79.012 27.4204 87.9574 27.4204 87.9574Z" fill="#3C652F" stroke="#3C652F" stroke-width="3"/>
<path d="M11.6174 116.624L19.2734 108.272M46.4176 78.6585L33.989 92.2177M33.989 92.2177L41.0365 88.6481M33.989 92.2177L34.7392 86.3533M33.989 92.2177L26.9295 99.9194M26.9295 99.9194L38.9921 96.4391M26.9295 99.9194L27.2317 91.3001M26.9295 99.9194L19.2734 108.272M19.2734 108.272L35.6202 104.031M19.2734 108.272L18.8901 96.7964" stroke="#2A501E" stroke-width="0.8"/>
<rect x="8" y="119" width="10" height="4" fill="white"/>
</svg>
