<svg width="50" height="122" viewBox="0 0 50 122" fill="none" xmlns="http://www.w3.org/2000/svg">
<path d="M29.6967 5.22103C29.6967 5.22103 29.8337 29.1219 29.8337 35.951V35.951C29.8337 51.4635 16.6307 65.7337 24.9925 78.7949L25.3418 79.3406C28.2739 83.9205 29.8208 89.2504 29.7967 94.6898L29.6957 117.424" stroke="#5E8D4F" stroke-width="9" stroke-linecap="round"/>
<path d="M31.0269 103.002C27.8637 89.8707 39.2962 87.0447 45.4078 87.2732C45.3654 100.619 43.0687 105.168 31.0269 103.002Z" fill="#3C652F" stroke="#3C652F" stroke-width="3"/>
<path d="M30.3725 102.581L32.9107 100.05M44.7556 88.2408L40.5253 92.4586M40.5253 92.4586L40.174 89.4582M40.5253 92.4586L43.782 93.8581M40.5253 92.4586L36.1257 96.845M36.1257 96.845L36.5766 92.0017M36.1257 96.845L42.151 97.6653M36.1257 96.845L32.9107 100.05M32.9107 100.05L39.2112 102.019M32.9107 100.05L32.6526 95.029" stroke="#2A501E" stroke-width="0.8"/>
<path d="M20.4082 74.0442C7.15747 76.6632 4.80526 65.124 5.28548 59.027C18.6177 59.6196 23.0686 62.1019 20.4082 74.0442Z" fill="#3C652F" stroke="#3C652F" stroke-width="3"/>
<path d="M19.9609 74.6812L17.5371 72.0409M6.22583 59.7192L10.2656 64.1198M10.2656 64.1198L7.25325 64.3471M10.2656 64.1198L11.7981 60.9235M10.2656 64.1198L14.4669 68.6964M14.4669 68.6964L9.64632 68.0462M14.4669 68.6964L15.5349 62.7102M14.4669 68.6964L17.5371 72.0409M17.5371 72.0409L19.7635 65.8269M17.5371 72.0409L12.5092 72.0917" stroke="#2A501E" stroke-width="0.8"/>
<rect x="25" y="118" width="10" height="4" fill="white"/>
</svg>
