<svg width="57" height="121" viewBox="0 0 57 121" fill="none" xmlns="http://www.w3.org/2000/svg">
<path d="M28.4359 5.07159L24.1237 37.2904C22.5376 49.1406 23.5047 61.193 26.9598 72.6388V72.6388C29.3668 80.6124 30.5722 88.9002 30.5361 97.2291L30.4526 116.51" stroke="#5E8D4F" stroke-width="9" stroke-linecap="round"/>
<path d="M4.6435 81.3191L30.6348 111.986C29.9343 108.165 29.1204 102.95 23.3615 95.5252C17.6026 88.1001 9.39895 83.7784 4.6435 81.3191Z" fill="#3C652F"/>
<path d="M11.951 97.5393C17.7099 104.964 25.9136 109.286 30.669 111.745L19.3244 95.7741L4.67769 81.0789C5.37817 84.8993 6.19212 90.1142 11.951 97.5393Z" fill="#3C652F"/>
<path d="M4.74452 81.1571C7.96786 87.0087 17.3927 101.06 30.4043 111.432" stroke="#2A501E" stroke-linecap="round"/>
<path d="M52.5957 58.0264L29.2977 90.786C32.8268 89.1637 37.6792 87.0871 43.4521 79.6729C49.225 72.2587 51.3869 63.2419 52.5957 58.0264Z" fill="#3C652F"/>
<path d="M38.6807 69.1132C32.9078 76.5274 30.7459 85.5442 29.5372 90.7597L42.2121 75.8223L52.8351 58.0002C49.306 59.6224 44.4536 61.699 38.6807 69.1132Z" fill="#3C652F"/>
<path d="M52.776 58.0835C47.9016 62.6521 36.6133 75.255 29.7752 90.4252" stroke="#2A501E" stroke-linecap="round"/>
<rect x="26" y="117" width="10" height="4" fill="white"/>
</svg>
