<svg width="45" height="121" viewBox="0 0 45 121" fill="none" xmlns="http://www.w3.org/2000/svg">
<path d="M24.4319 5.07159L20.1198 37.2904C18.5337 49.1406 19.5007 61.193 22.9559 72.6388V72.6388C25.3629 80.6124 26.5683 88.9002 26.5322 97.2291L26.4487 116.51" stroke="#5E8D4F" stroke-width="9" stroke-linecap="round"/>
<path d="M31.1639 94.5954C25.0455 96.9069 24.0283 99.5859 26.3645 106.694C37.0024 106.187 37.5097 103.275 39.004 98.366C39.004 98.366 40.1873 87.6568 38.6327 89.6741C37.078 91.6914 31.1639 94.5954 31.1639 94.5954Z" fill="#3C652F" stroke="#3C652F" stroke-width="3"/>
<path d="M26.7102 105.968L29.1676 102.82M37.88 91.6579L33.8908 96.7687M33.8908 96.7687L36.3759 95.6277M33.8908 96.7687L33.8583 94.3078M33.8908 96.7687L31.6249 99.6717M31.6249 99.6717L36.021 98.8405M31.6249 99.6717L31.2729 96.0113M31.6249 99.6717L29.1676 102.82M29.1676 102.82L35.1506 101.896M29.1676 102.82L28.4003 97.9041" stroke="#2A501E" stroke-width="0.8"/>
<path d="M7.4559 66.7542C9.6572 72.9131 12.3175 73.9782 19.4666 71.7701C19.1504 61.1248 16.2481 60.5653 11.3667 58.983C11.3667 58.983 0.68056 57.6076 2.66961 59.1982C4.65866 60.7888 7.4559 66.7542 7.4559 66.7542Z" fill="#3C652F" stroke="#3C652F" stroke-width="3"/>
<path d="M18.7462 71.4106L15.6426 68.8972M4.63872 59.9857L9.6771 64.066M9.6771 64.066L8.58092 61.5608M9.6771 64.066L7.21595 64.0543M9.6771 64.066L12.5389 66.3837M12.5389 66.3837L11.7868 61.9734M12.5389 66.3837L8.87274 66.6698M12.5389 66.3837L15.6426 68.8972M15.6426 68.8972L14.8265 62.8985M15.6426 68.8972L10.7136 69.576" stroke="#2A501E" stroke-width="0.8"/>
</svg>
