<svg width="55" height="55" viewBox="0 0 55 55" fill="none" xmlns="http://www.w3.org/2000/svg">
<path fill-rule="evenodd" clip-rule="evenodd" d="M35.5643 31.8592C36.2666 30.5627 36.6654 29.0777 36.6654 27.4997C36.6654 22.4371 32.5613 18.333 27.4987 18.333C25.9206 18.333 24.4357 18.7318 23.1392 19.434L24.6337 20.9286C25.5111 20.5455 26.4801 20.333 27.4987 20.333C31.4567 20.333 34.6654 23.5416 34.6654 27.4997C34.6654 28.5183 34.4529 29.4872 34.0698 30.3647L35.5643 31.8592ZM22.8889 22.0122C21.3255 23.3268 20.332 25.2972 20.332 27.4997C20.332 31.4577 23.5407 34.6663 27.4987 34.6663C29.7012 34.6663 31.6716 33.6728 32.9862 32.1095L34.4046 33.5279C32.7242 35.4513 30.2534 36.6663 27.4987 36.6663C22.4361 36.6663 18.332 32.5623 18.332 27.4997C18.332 24.745 19.5471 22.2742 21.4705 20.5938L22.8889 22.0122Z" fill="#0F2232"/>
<path fill-rule="evenodd" clip-rule="evenodd" d="M40.6362 36.9312C40.6435 36.9254 40.6508 36.9196 40.6581 36.9138C44.2239 34.0789 46.884 30.8391 48.138 29.184C48.1618 29.1525 48.1867 29.1201 48.2123 29.0867C48.5095 28.6999 48.9046 28.1857 48.9046 27.5C48.9046 26.8143 48.5095 26.3001 48.2123 25.9133C48.1867 25.8799 48.1618 25.8475 48.138 25.8161C46.884 24.1609 44.2239 20.9211 40.6581 18.0863C37.1067 15.2628 32.5422 12.75 27.4992 12.75C24.3801 12.75 21.4441 13.7112 18.8176 15.1126L20.3019 16.5969C22.5565 15.4722 24.985 14.75 27.4992 14.75C31.8881 14.75 36.0162 16.9509 39.4135 19.6518C42.7965 22.3413 45.3412 25.4364 46.5438 27.0238C46.64 27.1508 46.7136 27.248 46.7748 27.3335C46.8296 27.4097 46.8639 27.4621 46.8861 27.5C46.8639 27.5379 46.8296 27.5903 46.7748 27.6665C46.7136 27.752 46.64 27.8492 46.5438 27.9762C45.3412 29.5636 42.7965 32.6587 39.4135 35.3482C39.3466 35.4014 39.2795 35.4543 39.2121 35.5071L40.6362 36.9312ZM18.4849 17.6083C17.4712 18.2308 16.5014 18.9231 15.5848 19.6518C12.2018 22.3413 9.65712 25.4364 8.45453 27.0238C8.3583 27.1508 8.28473 27.248 8.22347 27.3335C8.16876 27.4097 8.13445 27.4621 8.11218 27.5C8.13445 27.5379 8.16876 27.5903 8.22347 27.6665C8.28473 27.752 8.3583 27.8492 8.45453 27.9762C9.65711 29.5636 12.2018 32.6587 15.5848 35.3482C18.9821 38.0491 23.1102 40.25 27.4992 40.25C31.1254 40.25 34.5736 38.7476 37.5786 36.702L39.0164 38.1398C35.7451 40.426 31.7958 42.25 27.4992 42.25C22.4561 42.25 17.8917 39.7372 14.3402 36.9137C10.7744 34.0789 8.11429 30.8391 6.86036 29.1839C6.83651 29.1525 6.81162 29.1201 6.786 29.0867C6.48882 28.6999 6.09375 28.1857 6.09375 27.5C6.09375 26.8143 6.48882 26.3001 6.78601 25.9133L6.78606 25.9132C6.81166 25.8799 6.83653 25.8475 6.86036 25.816C8.1143 24.1609 10.7745 20.9211 14.3402 18.0862C15.1834 17.4159 16.0836 16.7631 17.0339 16.1573L18.4849 17.6083Z" fill="#0F2232"/>
<path d="M10 5L46.6667 41.6667" stroke="#0F2232" stroke-width="2"/>
</svg>
