<svg width="181" height="171" viewBox="0 0 181 171" fill="none" xmlns="http://www.w3.org/2000/svg">
<path d="M20.548 95.7647C38.2749 102.354 57.9084 93.1075 64.4007 75.1111C70.8929 57.1147 61.7854 37.1838 44.0585 30.594C26.3316 24.0043 12.5334 39.9138 14.7345 56.6484C2.33468 68.1836 2.82116 89.175 20.548 95.7647Z" fill="#FF0000"/>
<path d="M92.9519 85.9881C93.9294 83.2786 61.0587 44.1769 61.0587 44.1769L42.2227 96.3901C42.2227 96.3901 91.9745 88.6975 92.9519 85.9881Z" fill="#FF0000"/>
<path d="M137.158 30.7754C119.406 37.2952 110.22 57.1901 116.641 75.2119C123.062 93.2338 142.659 102.558 160.412 96.0381C178.165 89.5183 178.662 68.3276 166.379 56.9451C168.575 40.0176 154.911 24.2555 137.158 30.7754Z" fill="#FF0000"/>
<path d="M87.8815 85.5113C88.8482 88.2246 138.788 96.7272 138.788 96.7272L120.158 44.4401C120.158 44.4401 86.9147 82.798 87.8815 85.5113Z" fill="#FF0000"/>
<path d="M55.8305 22.1498C55.7928 41.3147 71.0661 56.8811 89.9443 56.9183C108.823 56.9555 124.157 41.4494 124.195 22.2845C124.233 3.1196 104.788 -4.60107 90.0501 3.22326C75.1324 -4.65976 55.8683 2.98497 55.8305 22.1498Z" fill="#FF0000"/>
<path d="M89.6386 87.8756C92.4808 87.8812 117.434 43.1482 117.434 43.1482L62.6624 43.0404C62.6624 43.0404 86.7963 87.87 89.6386 87.8756Z" fill="#FF0000"/>
<path d="M76.679 153.848C89.3391 139.63 88.2496 117.687 74.2456 104.835C60.2415 91.9839 38.6259 93.0912 25.9658 107.309C13.3057 121.526 22.6665 140.473 38.7753 144.669C44.6648 160.661 64.0189 168.065 76.679 153.848Z" fill="#FF0000"/>
<path d="M94.8727 82.0349C92.7643 80.1 44.7366 96.3941 44.7366 96.3941L85.3668 133.68C85.3668 133.68 96.9811 83.9697 94.8727 82.0349Z" fill="#FF0000"/>
<path d="M151.803 105.471C139.199 91.2038 117.588 90.0113 103.534 102.807C89.4792 115.604 88.3033 137.543 100.907 151.81C113.511 166.077 133.051 158.606 138.847 142.78C155.129 138.505 164.407 119.738 151.803 105.471Z" fill="#FF0000"/>
<path d="M83.355 79.5959C81.239 81.5224 92.1784 131.714 92.1784 131.714L132.955 94.5885C132.955 94.5885 85.471 77.6693 83.355 79.5959Z" fill="#FF0000"/>
<path d="M34.8095 93.5593C48.836 98.7734 64.3712 91.4568 69.5082 77.217C74.6452 62.9772 67.4388 47.2067 53.4123 41.9926C39.3858 36.7784 28.4678 49.3669 30.2095 62.6083C20.398 71.7356 20.783 88.3451 34.8095 93.5593Z" fill="#FF4040"/>
<path d="M92.0989 85.8229C92.8723 83.679 66.8632 52.7395 66.8632 52.7395L51.9591 94.0536C51.9591 94.0536 91.3255 87.9667 92.0989 85.8229Z" fill="#FF4040"/>
<path d="M127.075 42.1371C113.028 47.2959 105.759 63.0379 110.84 77.2978C115.921 91.5577 131.427 98.9355 145.474 93.7766C159.521 88.6178 159.915 71.8505 150.196 62.844C151.933 49.45 141.122 36.9782 127.075 42.1371Z" fill="#FF4040"/>
<path d="M88.0849 85.4462C88.8498 87.5931 128.365 94.3209 128.365 94.3209L113.624 52.9484C113.624 52.9484 87.3199 83.2993 88.0849 85.4462Z" fill="#FF4040"/>
<path d="M62.7195 35.3125C62.6897 50.4769 74.7748 62.7939 89.7124 62.8233C104.65 62.8527 116.783 50.5834 116.813 35.4191C116.843 20.2547 101.457 14.1457 89.796 20.3367C77.9923 14.0993 62.7494 20.1482 62.7195 35.3125Z" fill="#FF4040"/>
<path d="M89.4695 87.3185C91.7185 87.323 111.463 51.9277 111.463 51.9277L68.1245 51.8424C68.1245 51.8424 87.2206 87.3141 89.4695 87.3185Z" fill="#FF4040"/>
<path d="M79.2217 139.52C89.2391 128.27 88.3771 110.907 77.2963 100.738C66.2155 90.5695 49.112 91.4457 39.0946 102.695C29.0772 113.945 36.4839 128.937 49.2301 132.257C53.8903 144.911 69.2043 150.769 79.2217 139.52Z" fill="#FF4040"/>
<path d="M93.6182 82.6972C91.9499 81.1662 53.9477 94.0591 53.9477 94.0591L86.0966 123.562C86.0966 123.562 95.2865 84.2282 93.6182 82.6972Z" fill="#FF4040"/>
<path d="M138.658 101.239C128.685 89.9499 111.585 89.0063 100.464 99.1314C89.3436 109.256 88.4131 126.616 98.3861 137.905C108.359 149.194 123.82 143.282 128.406 130.76C141.29 127.377 148.631 112.528 138.658 101.239Z" fill="#FF4040"/>
<path d="M84.4984 80.7655C82.8241 82.2899 91.48 122.005 91.48 122.005L123.745 92.6286C123.745 92.6286 86.1727 79.2411 84.4984 80.7655Z" fill="#FF4040"/>
<path d="M46.527 88.6745C57.3244 92.6883 69.2831 87.056 73.2375 76.0945C77.1919 65.1329 71.6445 52.993 60.8471 48.9793C50.0497 44.9655 41.6453 54.6559 42.986 64.8489C35.4333 71.875 35.7296 84.6607 46.527 88.6745Z" fill="#FF7373"/>
<path d="M90.6261 82.7199C91.2215 81.0695 71.2001 57.2528 71.2001 57.2528L59.7271 89.0557C59.7271 89.0557 90.0308 84.3702 90.6261 82.7199Z" fill="#FF7373"/>
<path d="M117.553 49.0901C106.74 53.0613 101.145 65.1793 105.056 76.1563C108.967 87.1333 120.904 92.8127 131.717 88.8415C142.53 84.8702 142.833 71.9631 135.352 65.03C136.689 54.7195 128.366 45.1189 117.553 49.0901Z" fill="#FF7373"/>
<path d="M87.5369 82.4303C88.1257 84.0829 118.544 89.2618 118.544 89.2618L107.196 57.414C107.196 57.414 86.948 80.7776 87.5369 82.4303Z" fill="#FF7373"/>
<path d="M68.0127 43.8359C67.9897 55.5091 77.2927 64.9906 88.7914 65.0132C100.29 65.0358 109.63 55.5911 109.653 43.9179C109.676 32.2446 97.8324 27.542 88.8558 32.3077C79.7694 27.5062 68.0357 32.1626 68.0127 43.8359Z" fill="#FF7373"/>
<path d="M88.6059 83.8694C90.3371 83.8728 105.536 56.6261 105.536 56.6261L72.1748 56.5604C72.1748 56.5604 86.8747 83.866 88.6059 83.8694Z" fill="#FF7373"/>
<path d="M80.7145 124.054C88.4257 115.394 87.7621 102.028 79.2323 94.2005C70.7024 86.3727 57.5365 87.0472 49.8252 95.7069C42.114 104.367 47.8156 115.907 57.6274 118.463C61.2147 128.204 73.0032 132.714 80.7145 124.054Z" fill="#FF7373"/>
<path d="M91.7988 80.3141C90.5146 79.1356 61.261 89.0603 61.261 89.0603L86.0088 111.771C86.0088 111.771 93.083 81.4926 91.7988 80.3141Z" fill="#FF7373"/>
<path d="M126.473 94.5858C118.795 85.8957 105.632 85.1694 97.0717 92.9635C88.5111 100.758 87.7948 114.121 95.4719 122.811C103.149 131.501 115.051 126.95 118.581 117.311C128.498 114.707 134.15 103.276 126.473 94.5858Z" fill="#FF7373"/>
<path d="M84.782 78.8252C83.4932 79.9986 90.1564 110.57 90.1564 110.57L114.993 87.9572C114.993 87.9572 86.0709 77.6517 84.782 78.8252Z" fill="#FF7373"/>
<ellipse cx="88.623" cy="79.5221" rx="10.2842" ry="10.4404" transform="rotate(0.112844 88.623 79.5221)" fill="white"/>
</svg>
