<svg width="298" height="299" viewBox="0 0 298 299" fill="none" xmlns="http://www.w3.org/2000/svg">
<path d="M143.5 170.674C111.82 100.34 160.176 58.2357 188.314 45.9754C205.675 124.706 201.198 156.627 143.5 170.674Z" fill="#5E8D4F" stroke="#5E8D4F" stroke-width="3"/>
<path d="M169.388 168.519C96.4861 186.713 63.1269 130.089 55.56 99.5021C134.4 97.2901 164.607 107.942 169.388 168.519Z" fill="#5E8D4F" stroke="#5E8D4F" stroke-width="3"/>
<path d="M162.723 126.616C169.085 203.248 109.159 225.681 78.4004 227.319C88.417 147.841 103.38 119.627 162.723 126.616Z" fill="#5E8D4F" stroke="#5E8D4F" stroke-width="3"/>
<path d="M135.438 127.7C207.669 151.326 207.261 216.745 198.027 246.501C128.909 206.268 108.352 181.184 135.438 127.7Z" fill="#5E8D4F" stroke="#5E8D4F" stroke-width="3"/>
<path d="M134.73 180.562C160.939 109.118 225.07 114.961 253.86 126.813C211.497 193.715 186.035 212.525 134.73 180.562Z" fill="#5E8D4F" stroke="#5E8D4F" stroke-width="3"/>
<path d="M116.717 175.089C95.4189 194.187 117.161 220.429 94.6503 240.15C107.226 254.628 140.958 246.618 162.256 227.52C183.554 208.422 179.129 185.842 160.595 182.377C159.376 163.098 138.016 155.991 116.717 175.089Z" fill="#392FAB"/>
<path d="M116.717 175.089C95.4189 194.187 117.161 220.429 94.6503 240.15C107.226 254.628 140.958 246.618 162.256 227.52C183.554 208.422 179.129 185.842 160.595 182.377C159.376 163.098 138.016 155.991 116.717 175.089Z" fill="#392FAB"/>
<path d="M116.717 175.089C95.4189 194.187 117.161 220.429 94.6503 240.15C107.226 254.628 140.958 246.618 162.256 227.52C183.554 208.422 179.129 185.842 160.595 182.377C159.376 163.098 138.016 155.991 116.717 175.089Z" fill="#392FAB"/>
<path d="M115.685 122.988C89.0559 111.606 75.1858 144.407 47.4586 132.162C40.0643 150.81 62.2787 179.136 88.9073 190.519C115.536 201.902 133.832 187.242 128.687 168.035C145.448 157.948 142.313 134.371 115.685 122.988Z" fill="#392FAB"/>
<path d="M115.685 122.988C89.0559 111.606 75.1858 144.407 47.4586 132.162C40.0643 150.81 62.2787 179.136 88.9073 190.519C115.536 201.902 133.832 187.242 128.687 168.035C145.448 157.948 142.313 134.371 115.685 122.988Z" fill="#392FAB"/>
<path d="M115.685 122.988C89.0559 111.606 75.1858 144.407 47.4586 132.162C40.0643 150.81 62.2787 179.136 88.9073 190.519C115.536 201.902 133.832 187.242 128.687 168.035C145.448 157.948 142.313 134.371 115.685 122.988Z" fill="#392FAB"/>
<path d="M173.116 109.333C173.03 80.1456 137.166 78.6753 137.44 48.1446C117.247 47.7725 99.904 78.798 99.9904 107.985C100.077 137.173 120.927 149.256 136.639 137.586C152.648 149.841 173.203 138.52 173.116 109.333Z" fill="#392FAB"/>
<path d="M173.116 109.333C173.03 80.1456 137.166 78.6753 137.44 48.1446C117.247 47.7725 99.904 78.798 99.9904 107.985C100.077 137.173 120.927 149.256 136.639 137.586C152.648 149.841 173.203 138.52 173.116 109.333Z" fill="#392FAB"/>
<path d="M173.116 109.333C173.03 80.1456 137.166 78.6753 137.44 48.1446C117.247 47.7725 99.904 78.798 99.9904 107.985C100.077 137.173 120.927 149.256 136.639 137.586C152.648 149.841 173.203 138.52 173.116 109.333Z" fill="#392FAB"/>
<path d="M209.898 153.526C233.124 136.894 212.756 106.417 237.27 89.3197C225.438 72.4182 190.277 75.6879 167.051 92.3203C143.825 108.953 146.711 133.042 165.455 139.407C165.297 159.593 186.672 170.158 209.898 153.526Z" fill="#392FAB"/>
<path d="M209.898 153.526C233.124 136.894 212.756 106.417 237.27 89.3197C225.438 72.4182 190.277 75.6879 167.051 92.3203C143.825 108.953 146.711 133.042 165.455 139.407C165.297 159.593 186.672 170.158 209.898 153.526Z" fill="#392FAB"/>
<path d="M209.898 153.526C233.124 136.894 212.756 106.417 237.27 89.3197C225.438 72.4182 190.277 75.6879 167.051 92.3203C143.825 108.953 146.711 133.042 165.455 139.407C165.297 159.593 186.672 170.158 209.898 153.526Z" fill="#392FAB"/>
<path d="M170.894 201.417C191.623 222.014 216.993 196.732 238.43 218.544C252.392 203.986 242.183 169.296 221.453 148.698C200.724 128.101 178.022 134.851 175.629 154.644C156.09 157.719 150.164 180.819 170.894 201.417Z" fill="#392FAB"/>
<path d="M170.894 201.417C191.623 222.014 216.993 196.732 238.43 218.544C252.392 203.986 242.183 169.296 221.453 148.698C200.724 128.101 178.022 134.851 175.629 154.644C156.09 157.719 150.164 180.819 170.894 201.417Z" fill="#392FAB"/>
<path d="M170.894 201.417C191.623 222.014 216.993 196.732 238.43 218.544C252.392 203.986 242.183 169.296 221.453 148.698C200.724 128.101 178.022 134.851 175.629 154.644C156.09 157.719 150.164 180.819 170.894 201.417Z" fill="#392FAB"/>
<path d="M116.901 175.4C100.777 193.885 123.399 215.377 106.296 234.505C119.286 246.318 147.818 236.666 163.942 218.181C180.065 199.696 173.138 180.109 156.401 178.47C152.733 161.55 133.024 156.915 116.901 175.4Z" fill="#91A1F3"/>
<path d="M113.533 123.863C88.3871 117.435 80.5283 148.614 54.2923 141.571C50.2597 159.228 73.7839 181.376 98.9294 187.804C124.075 194.231 138.311 178.606 131.152 162.203C144.646 150.87 138.678 130.29 113.533 123.863Z" fill="#91A1F3"/>
<path d="M170.467 108.016C168.769 82.7687 136.184 83.6389 134.738 57.2076C116.416 58.0919 102.42 85.9709 104.118 111.218C105.816 136.466 125.383 145.675 138.975 134.639C154.164 144.286 172.164 133.264 170.467 108.016Z" fill="#91A1F3"/>
<path d="M207.465 146.981C228.063 131.235 210.074 105.895 231.814 89.6726C221.363 75.6501 190.217 80.4544 169.618 96.2012C149.02 111.948 151.536 132.715 168.127 137.198C167.953 154.743 186.867 162.728 207.465 146.981Z" fill="#91A1F3"/>
<path d="M170.267 195.87C189.935 211.884 210.093 187.164 230.472 204.174C241.516 190.004 229.928 160.57 210.26 144.556C190.592 128.541 171.324 136.729 170.771 154.341C153.975 158.988 150.599 179.856 170.267 195.87Z" fill="#91A1F3"/>
<path d="M116.347 123.024C94.2176 121.371 91.6984 151.558 68.5651 149.521C67.4921 166.545 90.3319 183.02 112.461 184.674C134.59 186.327 144.567 169.441 136.335 155.488C146.252 142.699 138.476 124.677 116.347 123.024Z" fill="#C3D0FF"/>
<path d="M169.531 108.12C162.577 86.5602 133.984 94.5689 126.997 71.924C111.004 76.7704 104.663 104.11 111.617 125.671C118.57 147.231 137.843 150.878 147.465 138.264C162.965 143.265 176.484 129.681 169.531 108.12Z" fill="#C3D0FF"/>
<path d="M204.429 151.336C219.474 134.228 197.724 113.014 213.689 95.3247C201.208 83.6463 174.272 91.9367 159.228 109.045C144.183 126.153 151.019 145.049 166.918 147.146C170.626 163.395 189.384 168.444 204.429 151.336Z" fill="#C3D0FF"/>
<path d="M165.677 190.569C185.627 203.201 201.827 178.058 222.541 191.532C231.352 177.177 219.527 153.908 199.577 141.276C179.626 128.645 160.553 135.689 161.858 152.059C146.713 158.238 145.727 177.938 165.677 190.569Z" fill="#C3D0FF"/>
<path d="M116.087 167.872C104.954 187.142 130.248 203.739 118.341 223.737C132.758 232.782 157.162 219.897 168.295 200.627C179.427 181.357 169.029 164.309 153.224 165.152C146.382 150.1 127.22 148.602 116.087 167.872Z" fill="#C3D0FF"/>
<ellipse cx="148.662" cy="151.129" rx="14.6395" ry="15.0426" transform="rotate(-24.4483 148.662 151.129)" fill="white"/>
</svg>
