<svg width="171" height="164" viewBox="0 0 171 164" fill="none" xmlns="http://www.w3.org/2000/svg">
<path d="M19.3938 91.7486C36.1222 98.0615 54.6504 89.2017 60.7776 71.9597C66.9047 54.7178 58.3106 35.6228 41.5821 29.3099C24.8537 22.997 11.832 38.2397 13.9087 54.2726C2.20681 65.3245 2.6653 85.4357 19.3938 91.7486Z" fill="#E1004C"/>
<path d="M87.7215 82.3802C88.644 79.7843 57.6255 42.323 57.6255 42.323L39.8487 92.3475C39.8487 92.3475 86.799 84.976 87.7215 82.3802Z" fill="#E1004C"/>
<path d="M129.432 29.4799C112.678 35.7269 104.009 54.7879 110.068 72.0539C116.127 89.3198 134.621 98.2525 151.374 92.0055C168.127 85.7586 168.597 65.4564 157.006 54.5515C159.079 38.3338 146.185 23.233 129.432 29.4799Z" fill="#E1004C"/>
<path d="M82.9288 81.9218C83.841 84.5213 130.968 92.666 130.968 92.666L113.389 42.5719C113.389 42.5719 82.0165 79.3223 82.9288 81.9218Z" fill="#E1004C"/>
<path d="M52.682 21.2196C52.6459 39.5809 67.0587 54.4941 84.8739 54.5292C102.689 54.5643 117.161 39.7079 117.197 21.3466C117.233 2.98536 98.8831 -4.41103 84.9752 3.08564C70.8977 -4.46641 52.7182 2.85831 52.682 21.2196Z" fill="#E1004C"/>
<path d="M84.5833 84.188C87.2655 84.1933 110.815 41.3353 110.815 41.3353L59.1275 41.2335C59.1275 41.2335 81.9011 84.1827 84.5833 84.188Z" fill="#E1004C"/>
<path d="M72.358 147.395C84.3056 133.773 83.2781 112.749 70.063 100.437C56.8479 88.1251 36.4495 89.1866 24.5019 102.808C12.5543 116.43 21.3874 134.582 36.589 138.602C42.1464 153.923 60.4104 161.016 72.358 147.395Z" fill="#E1004C"/>
<path d="M89.5311 78.5922C87.5415 76.7385 42.2178 92.3508 42.2178 92.3508L80.559 128.072C80.559 128.072 91.5207 80.4458 89.5311 78.5922Z" fill="#E1004C"/>
<path d="M143.255 101.044C131.361 87.3757 110.967 86.2338 97.7039 98.4939C84.4404 110.754 83.3301 131.773 95.224 145.442C107.118 159.11 125.558 151.952 131.027 136.79C146.393 132.693 155.149 114.713 143.255 101.044Z" fill="#E1004C"/>
<path d="M78.6609 76.2559C76.664 78.1017 86.9861 126.189 86.9861 126.189L125.468 90.6186C125.468 90.6186 80.6578 74.4101 78.6609 76.2559Z" fill="#E1004C"/>
<path d="M32.8494 89.635C46.0859 94.6301 60.7465 87.6197 65.5946 73.9769C70.4427 60.3341 63.6426 45.2251 50.4061 40.2299C37.1696 35.2348 26.8661 47.2957 28.5093 59.9819C19.2501 68.7267 19.6129 84.6398 32.8494 89.635Z" fill="#F03C79"/>
<path d="M86.9114 82.2216C87.6413 80.1676 63.0977 50.5261 63.0977 50.5261L49.0316 90.1083C49.0316 90.1083 86.1814 84.2756 86.9114 82.2216Z" fill="#F03C79"/>
<path d="M119.92 40.367C106.664 45.31 99.8047 60.3921 104.599 74.0539C109.393 87.7157 124.026 94.7838 137.282 89.8408C150.538 84.8979 150.91 68.8337 141.739 60.2051C143.379 47.3727 133.176 35.4241 119.92 40.367Z" fill="#F03C79"/>
<path d="M83.1233 81.8613C83.8451 83.9181 121.135 90.3627 121.135 90.3627L107.225 50.7254C107.225 50.7254 82.4015 79.8044 83.1233 81.8613Z" fill="#F03C79"/>
<path d="M59.1929 33.8304C59.1643 48.3589 70.5685 60.1591 84.6649 60.1869C98.7613 60.2146 110.212 48.4595 110.241 33.931C110.269 19.4025 95.7498 13.55 84.7451 19.4818C73.6062 13.5062 59.2215 19.302 59.1929 33.8304Z" fill="#F03C79"/>
<path d="M84.4355 83.655C86.5578 83.6592 105.192 49.7476 105.192 49.7476L64.2934 49.667C64.2934 49.667 82.3132 83.6509 84.4355 83.655Z" fill="#F03C79"/>
<path d="M74.758 133.667C84.2116 122.889 83.3986 106.254 72.9421 96.5118C62.4855 86.7697 46.3452 87.6097 36.8915 98.3879C27.4379 109.166 34.4272 123.529 46.4555 126.71C50.8529 138.833 65.3044 144.445 74.758 133.667Z" fill="#F03C79"/>
<path d="M88.3452 79.2269C86.7709 77.7602 50.9083 90.1135 50.9083 90.1135L81.246 118.378C81.246 118.378 89.9195 80.6936 88.3452 79.2269Z" fill="#F03C79"/>
<path d="M130.85 96.9898C121.439 86.1744 105.302 85.2709 94.8072 94.9717C84.3123 104.673 83.4338 121.304 92.8449 132.12C102.256 142.935 116.847 137.271 121.175 125.274C133.333 122.032 140.261 107.805 130.85 96.9898Z" fill="#F03C79"/>
<path d="M79.7395 77.3761C78.1595 78.8366 86.3268 116.886 86.3268 116.886L116.776 88.7406C116.776 88.7406 81.3196 75.9156 79.7395 77.3761Z" fill="#F03C79"/>
<path d="M43.9102 84.9533C54.0995 88.7985 65.3849 83.402 69.1169 72.9C72.849 62.398 67.6143 50.7673 57.4251 46.9221C47.2358 43.0769 39.3044 52.3612 40.5693 62.1268C33.4417 68.8585 33.7209 81.1081 43.9102 84.9533Z" fill="#F283A8"/>
<path d="M85.5261 79.2468C86.088 77.6657 67.1947 54.8481 67.1947 54.8481L56.3669 85.3179C56.3669 85.3179 84.9642 80.8279 85.5261 79.2468Z" fill="#F283A8"/>
<path d="M110.939 47.0271C100.734 50.8321 95.454 62.4421 99.1446 72.9588C102.835 83.4754 114.099 88.9163 124.304 85.1112C134.508 81.3062 134.794 68.9403 127.735 62.2981C128.997 52.4199 121.143 43.2221 110.939 47.0271Z" fill="#F283A8"/>
<path d="M82.6113 78.9695C83.1669 80.5528 111.872 85.5137 111.872 85.5137L101.164 55.0016C101.164 55.0016 82.0556 77.3861 82.6113 78.9695Z" fill="#F283A8"/>
<path d="M64.1868 41.9944C64.1648 53.1782 72.9436 62.2618 83.7948 62.2831C94.646 62.3045 103.46 53.2556 103.482 42.0718C103.505 30.888 92.3277 26.3828 83.8565 30.949C75.2819 26.3491 64.2088 30.8106 64.1868 41.9944Z" fill="#F283A8"/>
<path d="M83.619 80.348C85.2527 80.3512 99.5968 54.2466 99.5968 54.2466L68.114 54.1846C68.114 54.1846 81.9853 80.3448 83.619 80.348Z" fill="#F283A8"/>
<path d="M76.1744 118.848C83.4516 110.551 82.8257 97.7458 74.7765 90.2465C66.7272 82.7472 54.3026 83.3938 47.0254 91.6907C39.7481 99.9876 45.1283 111.044 54.3875 113.492C57.7726 122.824 68.8971 127.145 76.1744 118.848Z" fill="#F283A8"/>
<path d="M86.6362 76.9422C85.4243 75.8131 57.8178 85.3225 57.8178 85.3225L81.1713 107.08C81.1713 107.08 87.848 78.0712 86.6362 76.9422Z" fill="#F283A8"/>
<path d="M119.354 90.6154C112.109 82.29 99.6875 81.5944 91.6088 89.062C83.53 96.5295 82.8537 109.332 90.0982 117.658C97.3427 125.983 108.574 121.623 111.906 112.388C121.265 109.893 126.598 98.9409 119.354 90.6154Z" fill="#F283A8"/>
<path d="M80.0119 75.5172C78.7956 76.6414 85.0827 105.931 85.0827 105.931L108.522 84.2654C108.522 84.2654 81.2282 74.3929 80.0119 75.5172Z" fill="#F283A8"/>
<ellipse cx="83.6346" cy="76.1838" rx="9.70511" ry="10.0026" transform="rotate(0.112844 83.6346 76.1838)" fill="white"/>
</svg>
