<svg width="281" height="282" viewBox="0 0 281 282" fill="none" xmlns="http://www.w3.org/2000/svg">
<path d="M211.797 72.9927C214.018 67.8277 208.997 62.475 203.497 64.1449L150.265 80.3071C145.602 81.7228 143.989 87.3309 147.212 90.917L178.515 125.739C181.821 129.416 187.935 128.467 189.867 123.977L211.797 72.9927Z" fill="#E1004C"/>
<path d="M237.863 147.51C242.979 145.178 242.858 137.84 237.663 135.381L187.381 111.575C182.977 109.49 178.013 112.559 177.991 117.381L177.77 164.203C177.747 169.148 182.912 172.555 187.36 170.527L237.863 147.51Z" fill="#E1004C"/>
<path d="M203.094 213.534C208.075 216.143 213.795 211.545 212.549 205.934L200.496 151.623C199.44 146.866 193.971 144.829 190.15 147.77L153.041 176.325C149.122 179.34 149.602 185.51 153.932 187.778L203.094 213.534Z" fill="#E1004C"/>
<path d="M135.296 235.018C137.583 240.155 144.921 240.098 147.426 234.925L171.673 184.855C173.797 180.47 170.772 175.479 165.951 175.414L119.132 174.781C114.188 174.714 110.736 179.85 112.724 184.315L135.296 235.018Z" fill="#E1004C"/>
<path d="M67.8989 208.977C65.781 214.186 70.9079 219.437 76.3734 217.657L129.272 200.434C133.905 198.925 135.406 193.286 132.112 189.765L100.119 155.576C96.7401 151.966 90.6456 153.037 88.8044 157.565L67.8989 208.977Z" fill="#E1004C"/>
<path d="M43.7097 143.839C38.9478 146.829 40.0405 154.086 45.5158 155.835L98.5091 172.764C103.151 174.247 107.664 170.548 107.047 165.765L101.059 119.327C100.426 114.423 94.8546 111.731 90.7146 114.33L43.7097 143.839Z" fill="#E1004C"/>
<path d="M73.0393 70.5283C67.8739 68.3075 62.522 73.3291 64.1927 78.8289L80.3627 132.059C81.7791 136.721 87.3874 138.334 90.973 135.11L125.79 103.802C129.467 100.496 128.517 94.3813 124.026 92.4505L73.0393 70.5283Z" fill="#E1004C"/>
<path d="M140.583 43.8086C137.954 38.8388 130.636 39.3922 128.487 44.7233L107.688 96.3208C105.866 100.84 109.222 105.615 114.037 105.353L160.791 102.812C165.729 102.544 168.825 97.1862 166.539 92.8655L140.583 43.8086Z" fill="#E1004C"/>
<ellipse cx="46.0135" cy="46.3004" rx="46.0135" ry="46.3004" transform="matrix(0.925136 0.379636 -0.379529 0.92518 118.16 80.3047)" fill="#F03C79"/>
<path d="M97.2462 228.452C97.5045 234.218 104.456 236.971 108.586 232.942L148.399 194.113C151.824 190.772 150.73 185.017 146.319 183.163L103.969 165.368C99.4472 163.468 94.4898 166.926 94.7094 171.827L97.2462 228.452Z" fill="#F03C79"/>
<path d="M180.749 51.4624C180.467 45.6976 173.505 42.9746 169.39 47.0202L129.732 86.0143C126.32 89.3691 127.437 95.1193 131.857 96.9543L174.281 114.568C178.812 116.449 183.755 112.97 183.516 108.071L180.749 51.4624Z" fill="#F03C79"/>
<path d="M236.406 99.7317C239.789 95.0475 236.309 88.5471 230.677 89.03L176.235 93.6979C171.493 94.1045 168.631 99.349 170.812 103.637L191.916 145.135C194.152 149.532 200.148 149.942 203.068 145.898L236.406 99.7317Z" fill="#F03C79"/>
<path d="M50.5618 101.246C44.97 101.961 42.7013 108.833 46.7778 112.709L86.3359 150.317C89.8452 153.654 95.6421 152.26 97.2604 147.691L113.086 103.006C114.746 98.3187 110.884 93.539 105.946 94.1699L50.5618 101.246Z" fill="#F03C79"/>
<path d="M178.74 236.661C183.242 240.031 189.623 236.4 189.284 230.66L186.01 175.111C185.723 170.247 180.649 167.368 176.409 169.663L135.248 191.947C130.9 194.301 130.391 200.467 134.304 203.396L178.74 236.661Z" fill="#F03C79"/>
<path d="M230.8 186.926C236.42 186.955 239.535 180.42 235.995 176.028L201.64 133.408C198.592 129.628 192.684 130.248 190.505 134.578L169.192 176.915C166.957 181.356 170.17 186.618 175.132 186.644L230.8 186.926Z" fill="#F03C79"/>
<path d="M101.224 48.9963C96.683 45.6808 90.3471 49.3842 90.7509 55.118L94.6592 110.612C95.0016 115.473 100.11 118.294 104.323 115.95L145.239 93.1832C149.56 90.7788 149.996 84.6063 146.048 81.7238L101.224 48.9963Z" fill="#F03C79"/>
<path d="M47.7351 181.635C43.933 185.969 46.7573 192.754 52.3948 192.83L106.926 193.563C111.69 193.627 115.057 188.679 113.3 184.193L96.2719 140.71C94.4709 136.111 88.5328 135.128 85.2381 138.884L47.7351 181.635Z" fill="#F03C79"/>
<path d="M108.023 205.704C108.789 210.797 114.784 213.148 118.804 209.932L146.137 188.064C150.095 184.897 149.222 178.645 144.547 176.681L111.858 162.946C107.052 160.927 101.89 164.945 102.666 170.101L108.023 205.704Z" fill="#F283A8"/>
<path d="M169.894 74.636C169.042 69.6475 163.172 67.3771 159.188 70.4952L132.659 91.2586C128.632 94.4103 129.494 100.735 134.217 102.696L166.584 116.133C171.442 118.15 176.616 114.022 175.731 108.836L169.894 74.636Z" fill="#F283A8"/>
<path d="M75.5906 108.124C70.787 109.32 68.8928 115.127 72.0739 118.906L93.6452 144.526C96.9722 148.478 103.348 147.312 105.074 142.437L117.106 108.449C118.882 103.433 114.363 98.4687 109.194 99.756L75.5906 108.124Z" fill="#F283A8"/>
<path d="M168.962 207.231C173.413 209.751 178.909 206.837 179.039 201.888L179.808 172.498C179.941 167.446 174.405 164.006 169.823 166.292L141.82 180.266C137.107 182.618 137.055 189.169 141.729 191.815L168.962 207.231Z" fill="#F283A8"/>
<path d="M202.817 174.811C207.637 174.199 210.194 168.785 207.622 164.641L193.227 141.454C190.474 137.019 183.955 137.299 181.612 141.951L168.148 168.681C165.736 173.469 169.65 179.029 174.959 178.354L202.817 174.811Z" fill="#F283A8"/>
<path d="M113.991 73.2242C109.817 71.1686 104.867 74.0826 104.466 78.8315L101.925 108.922C101.474 114.255 106.972 117.899 111.599 115.334L141.536 98.7347C146.3 96.0932 146.212 89.0924 141.386 86.7155L113.991 73.2242Z" fill="#F283A8"/>
<path d="M75.0305 166.806C72.3348 170.919 74.6589 176.414 79.4033 177.147L110.309 181.918C115.402 182.704 119.482 177.493 117.573 172.64L104.81 140.193C102.845 135.199 96.1511 134.588 93.1726 139.131L75.0305 166.806Z" fill="#F283A8"/>
<path d="M210.197 114.855C213.007 110.479 210.176 104.717 205.099 104.476L173.512 102.978C168.499 102.74 164.977 108.073 167.105 112.681L180.718 142.166C182.905 146.904 189.371 147.284 192.224 142.842L210.197 114.855Z" fill="#F283A8"/>
<ellipse cx="40.4957" cy="40.6234" rx="40.4957" ry="40.6234" transform="matrix(0.925138 0.379631 -0.379535 0.925178 120.602 85.1201)" fill="#F283A8"/>
<ellipse cx="28.6138" cy="30.2697" rx="28.6138" ry="30.2697" transform="matrix(0.925138 0.379631 -0.379535 0.925178 126.977 98.8154)" fill="white"/>
</svg>
