<svg width="298" height="299" viewBox="0 0 298 299" fill="none" xmlns="http://www.w3.org/2000/svg">
<path d="M143.5 170.673C111.82 100.339 160.176 58.2348 188.314 45.9744C205.675 124.705 201.198 156.626 143.5 170.673Z" fill="#5E8D4F" stroke="#5E8D4F" stroke-width="3"/>
<path d="M169.388 168.518C96.4861 186.712 63.1269 130.088 55.56 99.5011C134.4 97.2891 164.607 107.941 169.388 168.518Z" fill="#5E8D4F" stroke="#5E8D4F" stroke-width="3"/>
<path d="M162.723 126.615C169.085 203.247 109.159 225.68 78.4004 227.318C88.417 147.84 103.38 119.626 162.723 126.615Z" fill="#5E8D4F" stroke="#5E8D4F" stroke-width="3"/>
<path d="M135.438 127.699C207.669 151.325 207.261 216.744 198.027 246.5C128.909 206.267 108.352 181.183 135.438 127.699Z" fill="#5E8D4F" stroke="#5E8D4F" stroke-width="3"/>
<path d="M134.73 180.561C160.939 109.117 225.07 114.96 253.86 126.812C211.497 193.714 186.035 212.524 134.73 180.561Z" fill="#5E8D4F" stroke="#5E8D4F" stroke-width="3"/>
<path d="M106.634 207.386C106.594 218.667 106.418 230.243 95.3575 240.189C101.54 246.906 112.7 248.454 125.086 245.931C137.666 243.369 151.344 236.632 161.928 227.142C172.499 217.663 176.611 207.39 175.869 199.132C175.129 190.904 169.565 184.566 160.504 182.872L160.125 182.801L160.1 182.409C159.503 172.978 154.003 166.581 146.079 164.833C138.126 163.078 127.617 165.985 117.045 175.466C106.712 184.731 106.674 195.677 106.636 206.962C106.635 207.103 106.635 207.244 106.634 207.386Z" fill="#FF0505"/>
<path d="M106.634 207.386C106.594 218.667 106.418 230.243 95.3575 240.189C101.54 246.906 112.7 248.454 125.086 245.931C137.666 243.369 151.344 236.632 161.928 227.142C172.499 217.663 176.611 207.39 175.869 199.132C175.129 190.904 169.565 184.566 160.504 182.872L160.125 182.801L160.1 182.409C159.503 172.978 154.003 166.581 146.079 164.833C138.126 163.078 127.617 165.985 117.045 175.466C106.712 184.731 106.674 195.677 106.636 206.962C106.635 207.103 106.635 207.244 106.634 207.386Z" fill="#FF0505"/>
<path d="M106.634 207.386C106.594 218.667 106.418 230.243 95.3575 240.189C101.54 246.906 112.7 248.454 125.086 245.931C137.666 243.369 151.344 236.632 161.928 227.142C172.499 217.663 176.611 207.39 175.869 199.132C175.129 190.904 169.565 184.566 160.504 182.872L160.125 182.801L160.1 182.409C159.503 172.978 154.003 166.581 146.079 164.833C138.126 163.078 127.617 165.985 117.045 175.466C106.712 184.731 106.674 195.677 106.636 206.962C106.635 207.103 106.635 207.244 106.634 207.386Z" fill="#FF0505"/>
<path d="M106.634 207.386C106.594 218.667 106.418 230.243 95.3575 240.189C101.54 246.906 112.7 248.454 125.086 245.931C137.666 243.369 151.344 236.632 161.928 227.142C172.499 217.663 176.611 207.39 175.869 199.132C175.129 190.904 169.565 184.566 160.504 182.872L160.125 182.801L160.1 182.409C159.503 172.978 154.003 166.581 146.079 164.833C138.126 163.078 127.617 165.985 117.045 175.466C106.712 184.731 106.674 195.677 106.636 206.962C106.635 207.103 106.635 207.244 106.634 207.386Z" stroke="#FF0505"/>
<path d="M82.2125 128.349C72.0706 133.535 61.6003 138.731 47.7394 132.827C44.4433 141.831 48.0342 153.167 55.819 163.766C63.7227 174.528 75.8608 184.397 89.0916 190.053C102.304 195.701 113.356 194.851 120.443 190.318C127.512 185.797 130.728 177.56 128.209 168.158L128.111 167.79L128.429 167.598C136.639 162.658 139.939 154.455 137.975 146.105C136.006 137.733 128.714 129.1 115.5 123.452C102.583 117.93 92.7409 122.964 82.5902 128.156C82.4643 128.22 82.3384 128.285 82.2125 128.349Z" fill="#FF0505"/>
<path d="M82.2125 128.349C72.0706 133.535 61.6003 138.731 47.7394 132.827C44.4433 141.831 48.0342 153.167 55.819 163.766C63.7227 174.528 75.8608 184.397 89.0916 190.053C102.304 195.701 113.356 194.851 120.443 190.318C127.512 185.797 130.728 177.56 128.209 168.158L128.111 167.79L128.429 167.598C136.639 162.658 139.939 154.455 137.975 146.105C136.006 137.733 128.714 129.1 115.5 123.452C102.583 117.93 92.7409 122.964 82.5902 128.156C82.4643 128.22 82.3384 128.285 82.2125 128.349Z" fill="#FF0505"/>
<path d="M82.2125 128.349C72.0706 133.535 61.6003 138.731 47.7394 132.827C44.4433 141.831 48.0342 153.167 55.819 163.766C63.7227 174.528 75.8608 184.397 89.0916 190.053C102.304 195.701 113.356 194.851 120.443 190.318C127.512 185.797 130.728 177.56 128.209 168.158L128.111 167.79L128.429 167.598C136.639 162.658 139.939 154.455 137.975 146.105C136.006 137.733 128.714 129.1 115.5 123.452C102.583 117.93 92.7409 122.964 82.5902 128.156C82.4643 128.22 82.3384 128.285 82.2125 128.349Z" fill="#FF0505"/>
<path d="M82.2125 128.349C72.0706 133.535 61.6003 138.731 47.7394 132.827C44.4433 141.831 48.0342 153.167 55.819 163.766C63.7227 174.528 75.8608 184.397 89.0916 190.053C102.304 195.701 113.356 194.851 120.443 190.318C127.512 185.797 130.728 177.56 128.209 168.158L128.111 167.79L128.429 167.598C136.639 162.658 139.939 154.455 137.975 146.105C136.006 137.733 128.714 129.1 115.5 123.452C102.583 117.93 92.7409 122.964 82.5902 128.156C82.4643 128.22 82.3384 128.285 82.2125 128.349Z" stroke="#FF0505"/>
<path d="M154.818 79.6149C145.98 71.8734 137.002 63.8267 136.939 48.6411C127.295 48.7187 118.241 56.1311 111.54 67.2443C104.737 78.5258 100.447 93.4906 100.49 107.994C100.533 122.476 105.725 132.616 112.743 137.703C119.742 142.778 128.643 142.894 136.336 137.181L136.635 136.959L136.937 137.19C144.78 143.194 153.682 143.402 160.623 138.586C167.582 133.757 172.659 123.807 172.616 109.323C172.574 95.1622 163.995 87.6499 155.148 79.9035C155.038 79.8073 154.928 79.7111 154.818 79.6149Z" fill="#FF0505"/>
<path d="M154.818 79.6149C145.98 71.8734 137.002 63.8267 136.939 48.6411C127.295 48.7187 118.241 56.1311 111.54 67.2443C104.737 78.5258 100.447 93.4906 100.49 107.994C100.533 122.476 105.725 132.616 112.743 137.703C119.742 142.778 128.643 142.894 136.336 137.181L136.635 136.959L136.937 137.19C144.78 143.194 153.682 143.402 160.623 138.586C167.582 133.757 172.659 123.807 172.616 109.323C172.574 95.1622 163.995 87.6499 155.148 79.9035C155.038 79.8073 154.928 79.7111 154.818 79.6149Z" fill="#FF0505"/>
<path d="M154.818 79.6149C145.98 71.8734 137.002 63.8267 136.939 48.6411C127.295 48.7187 118.241 56.1311 111.54 67.2443C104.737 78.5258 100.447 93.4906 100.49 107.994C100.533 122.476 105.725 132.616 112.743 137.703C119.742 142.778 128.643 142.894 136.336 137.181L136.635 136.959L136.937 137.19C144.78 143.194 153.682 143.402 160.623 138.586C167.582 133.757 172.659 123.807 172.616 109.323C172.574 95.1622 163.995 87.6499 155.148 79.9035C155.038 79.8073 154.928 79.7111 154.818 79.6149Z" fill="#FF0505"/>
<path d="M154.818 79.6149C145.98 71.8734 137.002 63.8267 136.939 48.6411C127.295 48.7187 118.241 56.1311 111.54 67.2443C104.737 78.5258 100.447 93.4906 100.49 107.994C100.533 122.476 105.725 132.616 112.743 137.703C119.742 142.778 128.643 142.894 136.336 137.181L136.635 136.959L136.937 137.19C144.78 143.194 153.682 143.402 160.623 138.586C167.582 133.757 172.659 123.807 172.616 109.323C172.574 95.1622 163.995 87.6499 155.148 79.9035C155.038 79.8073 154.928 79.7111 154.818 79.6149Z" stroke="#FF0505"/>
<path d="M222.605 121.561C223.469 109.871 224.493 97.8783 236.57 89.2017C230.708 81.2558 219.346 77.9787 206.46 78.7454C193.38 79.5238 178.873 84.4681 167.338 92.7289C155.822 100.976 150.854 111.013 151.012 119.702C151.169 128.377 156.432 135.811 165.616 138.93L165.956 139.045L165.953 139.408C165.875 149.304 171.064 156.794 179.082 159.801C187.115 162.814 198.094 161.363 209.611 153.116C220.87 145.053 221.708 133.706 222.573 121.99C222.584 121.847 222.594 121.704 222.605 121.561Z" fill="#FF0505"/>
<path d="M222.605 121.561C223.469 109.871 224.493 97.8783 236.57 89.2017C230.708 81.2558 219.346 77.9787 206.46 78.7454C193.38 79.5238 178.873 84.4681 167.338 92.7289C155.822 100.976 150.854 111.013 151.012 119.702C151.169 128.377 156.432 135.811 165.616 138.93L165.956 139.045L165.953 139.408C165.875 149.304 171.064 156.794 179.082 159.801C187.115 162.814 198.094 161.363 209.611 153.116C220.87 145.053 221.708 133.706 222.573 121.99C222.584 121.847 222.594 121.704 222.605 121.561Z" fill="#FF0505"/>
<path d="M222.605 121.561C223.469 109.871 224.493 97.8783 236.57 89.2017C230.708 81.2558 219.346 77.9787 206.46 78.7454C193.38 79.5238 178.873 84.4681 167.338 92.7289C155.822 100.976 150.854 111.013 151.012 119.702C151.169 128.377 156.432 135.811 165.616 138.93L165.956 139.045L165.953 139.408C165.875 149.304 171.064 156.794 179.082 159.801C187.115 162.814 198.094 161.363 209.611 153.116C220.87 145.053 221.708 133.706 222.573 121.99C222.584 121.847 222.594 121.704 222.605 121.561Z" fill="#FF0505"/>
<path d="M222.605 121.561C223.469 109.871 224.493 97.8783 236.57 89.2017C230.708 81.2558 219.346 77.9787 206.46 78.7454C193.38 79.5238 178.873 84.4681 167.338 92.7289C155.822 100.976 150.854 111.013 151.012 119.702C151.169 128.377 156.432 135.811 165.616 138.93L165.956 139.045L165.953 139.408C165.875 149.304 171.064 156.794 179.082 159.801C187.115 162.814 198.094 161.363 209.611 153.116C220.87 145.053 221.708 133.706 222.573 121.99C222.584 121.847 222.594 121.704 222.605 121.561Z" stroke="#FF0505"/>
<path d="M204.354 209.021C215.833 208.014 227.621 207.12 238.418 217.823C244.904 210.691 245.797 198.799 242.472 186.014C239.097 173.035 231.408 159.293 221.107 149.058C210.821 138.837 200.117 135.471 191.754 137.02C183.413 138.565 177.292 145.015 176.121 154.705L176.075 155.083L175.705 155.141C166.133 156.648 159.947 163.034 158.65 171.536C157.349 180.063 160.952 190.833 171.24 201.055C181.297 211.048 192.438 210.069 203.925 209.059C204.068 209.046 204.211 209.034 204.354 209.021Z" fill="#FF0505"/>
<path d="M204.354 209.021C215.833 208.014 227.621 207.12 238.418 217.823C244.904 210.691 245.797 198.799 242.472 186.014C239.097 173.035 231.408 159.293 221.107 149.058C210.821 138.837 200.117 135.471 191.754 137.02C183.413 138.565 177.292 145.015 176.121 154.705L176.075 155.083L175.705 155.141C166.133 156.648 159.947 163.034 158.65 171.536C157.349 180.063 160.952 190.833 171.24 201.055C181.297 211.048 192.438 210.069 203.925 209.059C204.068 209.046 204.211 209.034 204.354 209.021Z" fill="#FF0505"/>
<path d="M204.354 209.021C215.833 208.014 227.621 207.12 238.418 217.823C244.904 210.691 245.797 198.799 242.472 186.014C239.097 173.035 231.408 159.293 221.107 149.058C210.821 138.837 200.117 135.471 191.754 137.02C183.413 138.565 177.292 145.015 176.121 154.705L176.075 155.083L175.705 155.141C166.133 156.648 159.947 163.034 158.65 171.536C157.349 180.063 160.952 190.833 171.24 201.055C181.297 211.048 192.438 210.069 203.925 209.059C204.068 209.046 204.211 209.034 204.354 209.021Z" fill="#FF0505"/>
<path d="M204.354 209.021C215.833 208.014 227.621 207.12 238.418 217.823C244.904 210.691 245.797 198.799 242.472 186.014C239.097 173.035 231.408 159.293 221.107 149.058C210.821 138.837 200.117 135.471 191.754 137.02C183.413 138.565 177.292 145.015 176.121 154.705L176.075 155.083L175.705 155.141C166.133 156.648 159.947 163.034 158.65 171.536C157.349 180.063 160.952 190.833 171.24 201.055C181.297 211.048 192.438 210.069 203.925 209.059C204.068 209.046 204.211 209.034 204.354 209.021Z" stroke="#FF0505"/>
<path d="M116.901 175.399C100.777 193.884 123.399 215.377 106.296 234.504C119.286 246.318 147.818 236.665 163.942 218.18C180.065 199.695 173.138 180.108 156.401 178.469C152.733 161.549 133.024 156.914 116.901 175.399Z" fill="#FF4040"/>
<path d="M113.533 123.862C88.3871 117.434 80.5283 148.613 54.2923 141.57C50.2597 159.227 73.7839 181.375 98.9294 187.803C124.075 194.23 138.311 178.605 131.152 162.202C144.646 150.869 138.678 130.289 113.533 123.862Z" fill="#FF4040"/>
<path d="M170.467 108.015C168.769 82.7677 136.184 83.6379 134.738 57.2067C116.416 58.0909 102.42 85.9699 104.118 111.217C105.816 136.465 125.383 145.674 138.975 134.639C154.164 144.285 172.164 133.263 170.467 108.015Z" fill="#FF4040"/>
<path d="M207.465 146.98C228.063 131.234 210.074 105.894 231.814 89.6717C221.363 75.6491 190.217 80.4534 169.618 96.2002C149.02 111.947 151.536 132.714 168.127 137.197C167.953 154.742 186.867 162.727 207.465 146.98Z" fill="#FF4040"/>
<path d="M170.267 195.869C189.935 211.883 210.093 187.163 230.472 204.173C241.516 190.003 229.928 160.569 210.26 144.555C190.592 128.54 171.324 136.728 170.771 154.341C153.975 158.987 150.599 179.855 170.267 195.869Z" fill="#FF4040"/>
<path d="M116.347 123.023C94.2176 121.37 91.6984 151.557 68.5651 149.52C67.4921 166.544 90.3319 183.019 112.461 184.673C134.59 186.326 144.567 169.44 136.335 155.487C146.252 142.698 138.476 124.676 116.347 123.023Z" fill="#FF7373"/>
<path d="M169.531 108.119C162.577 86.5592 133.984 94.5679 126.997 71.923C111.004 76.7694 104.663 104.109 111.617 125.67C118.57 147.23 137.843 150.877 147.465 138.263C162.965 143.264 176.484 129.68 169.531 108.119Z" fill="#FF7373"/>
<path d="M204.429 151.335C219.474 134.227 197.724 113.013 213.689 95.3237C201.208 83.6453 174.272 91.9357 159.228 109.044C144.183 126.152 151.019 145.048 166.918 147.145C170.626 163.394 189.384 168.443 204.429 151.335Z" fill="#FF7373"/>
<path d="M165.677 190.568C185.627 203.2 201.827 178.057 222.541 191.531C231.352 177.176 219.527 153.907 199.577 141.275C179.626 128.644 160.553 135.688 161.858 152.058C146.713 158.237 145.727 177.937 165.677 190.568Z" fill="#FF7373"/>
<path d="M116.087 167.871C104.954 187.141 130.248 203.738 118.341 223.736C132.758 232.781 157.162 219.896 168.295 200.626C179.427 181.356 169.029 164.308 153.224 165.151C146.382 150.099 127.22 148.601 116.087 167.871Z" fill="#FF7373"/>
<ellipse cx="148.662" cy="151.128" rx="14.6395" ry="15.0426" transform="rotate(-24.4483 148.662 151.128)" fill="white"/>
</svg>
