<svg width="308" height="305" viewBox="0 0 308 305" fill="none" xmlns="http://www.w3.org/2000/svg">
<path d="M148.048 174.064C116.104 103.123 166.946 59.716 196.36 46.8803C213.304 126.543 208.206 159.003 148.048 174.064Z" fill="#5E8D4F" stroke="#5E8D4F" stroke-width="3"/>
<path d="M174.982 171.514C98.9646 190.997 65.0856 133.993 57.6483 103.055C139.614 99.7108 170.858 110.101 174.982 171.514Z" fill="#5E8D4F" stroke="#5E8D4F" stroke-width="3"/>
<path d="M168.639 129.08C174.181 206.767 111.589 230.371 79.601 232.462C91.1194 151.658 107.064 122.815 168.639 129.08Z" fill="#5E8D4F" stroke="#5E8D4F" stroke-width="3"/>
<path d="M140.27 130.562C215.007 153.533 213.67 219.933 203.659 250.262C132.389 210.392 111.375 185.221 140.27 130.562Z" fill="#5E8D4F" stroke="#5E8D4F" stroke-width="3"/>
<path d="M138.795 184.222C167.029 111.346 233.597 116.381 263.351 128.009C218.392 196.5 191.668 215.945 138.795 184.222Z" fill="#5E8D4F" stroke="#5E8D4F" stroke-width="3"/>
<path d="M120.151 178.92C97.7501 198.6 119.979 224.93 96.3104 245.259C109.177 259.778 144.345 251.178 166.746 231.498C189.147 211.818 184.863 188.963 165.649 185.705C164.651 166.155 142.552 159.24 120.151 178.92Z" fill="#FFBE00"/>
<path d="M119.806 126.057C92.2913 114.876 77.4193 148.36 48.7744 136.319C40.8298 155.348 63.5211 183.787 91.0362 194.968C118.551 206.15 137.77 191.016 132.691 171.594C150.251 161.123 147.322 137.238 119.806 126.057Z" fill="#FFBE00"/>
<path d="M179.682 111.396C179.999 81.7748 142.749 80.7828 143.459 49.7929C122.478 49.6968 104.022 81.427 103.705 111.048C103.387 140.67 124.887 152.643 141.379 140.58C157.845 152.794 179.365 141.018 179.682 111.396Z" fill="#FFBE00"/>
<path d="M217.292 155.735C241.661 138.531 220.919 107.884 246.633 90.1894C234.572 73.2008 197.986 77.0098 173.616 94.2142C149.246 111.419 151.91 135.827 171.301 142.026C170.855 162.514 192.922 172.94 217.292 155.735Z" fill="#FFBE00"/>
<path d="M176.084 204.886C197.34 225.501 224.058 199.488 246.032 221.327C260.745 206.357 250.62 171.292 229.363 150.676C208.107 130.061 184.42 137.228 181.657 157.35C161.308 160.743 154.828 184.271 176.084 204.886Z" fill="#FFBE00"/>
<path d="M120.338 179.232C103.323 198.217 126.533 219.715 108.492 239.366C121.827 251.175 151.614 240.981 168.628 221.995C185.643 203.01 178.717 183.226 161.345 181.797C157.769 164.676 137.352 160.246 120.338 179.232Z" fill="#FFD14D"/>
<path d="M117.551 126.972C91.5086 120.799 82.9065 152.553 55.7388 145.771C51.3017 163.747 75.4403 185.898 101.483 192.07C127.526 198.243 142.539 182.187 135.328 165.639C149.51 153.948 143.594 133.144 117.551 126.972Z" fill="#FFD14D"/>
<path d="M176.944 110.096C175.532 84.4957 141.656 85.8334 140.521 59.028C121.468 60.181 106.534 88.6711 107.946 114.271C109.358 139.872 129.565 148.945 143.845 137.556C159.495 147.135 178.356 135.697 176.944 110.096Z" fill="#FFD14D"/>
<path d="M214.851 149.126C236.477 132.857 218.135 107.391 240.954 90.6229C230.289 76.5369 197.853 81.8473 176.227 98.1163C154.6 114.385 156.926 135.427 174.105 139.745C173.68 157.554 193.224 165.395 214.851 149.126Z" fill="#FFD14D"/>
<path d="M175.515 199.263C195.732 215.242 217.025 189.871 237.967 206.851C249.642 192.316 238.01 162.604 217.793 146.625C197.576 130.646 177.438 139.225 176.617 157.108C159.098 162.058 155.298 183.284 175.515 199.263Z" fill="#FFD14D"/>
<path d="M120.488 126.085C97.5135 124.715 94.4744 155.388 70.4614 153.644C69.1088 170.937 92.6154 187.339 115.59 188.708C138.565 190.078 149.168 172.801 140.809 158.754C151.293 145.636 143.463 127.454 120.488 126.085Z" fill="#FFE28E"/>
<path d="M175.975 110.216C169.05 88.4315 139.222 96.9585 132.277 74.0732C115.589 79.2149 108.618 107.051 115.543 128.836C122.469 150.621 142.447 154.054 152.623 141.117C168.662 145.977 182.901 132.001 175.975 110.216Z" fill="#FFE28E"/>
<path d="M211.633 153.588C227.507 136.015 205.2 114.787 222.039 96.6118C209.23 84.9332 181.122 93.7229 165.248 111.296C149.374 128.869 156.215 147.952 172.708 149.858C176.336 166.298 195.759 171.161 211.633 153.588Z" fill="#FFE28E"/>
<path d="M170.824 193.949C191.381 206.491 208.567 180.747 229.906 194.134C239.263 179.442 227.298 155.99 206.741 143.448C186.184 130.907 166.264 138.322 167.391 154.918C151.566 161.4 150.266 181.408 170.824 193.949Z" fill="#FFE28E"/>
<path d="M119.601 171.604C107.762 191.317 133.818 207.809 121.164 228.271C136.02 237.25 161.562 223.832 173.401 204.119C185.239 184.407 174.671 167.249 158.234 168.325C151.333 153.145 131.439 151.892 119.601 171.604Z" fill="#FFE28E"/>
<ellipse cx="153.678" cy="154.159" rx="15.307" ry="15.1716" transform="rotate(-24.4483 153.678 154.159)" fill="white"/>
</svg>
