<svg width="176" height="162" viewBox="0 0 176 162" fill="none" xmlns="http://www.w3.org/2000/svg">
<path d="M19.9735 90.9464C37.211 97.2053 56.3017 88.4246 62.6138 71.3341C68.9258 54.2437 60.069 35.3153 42.8316 29.0564C25.5941 22.7975 12.1778 37.9057 14.3189 53.7983C2.26209 64.7525 2.73607 84.6875 19.9735 90.9464Z" fill="#AB2F90"/>
<path d="M90.3773 81.6657C91.3276 79.0926 59.3633 41.9571 59.3633 41.9571L41.0499 91.5421C41.0499 91.5421 89.4269 84.2388 90.3773 81.6657Z" fill="#AB2F90"/>
<path d="M133.358 29.232C116.096 35.423 107.165 54.3163 113.41 71.4315C119.654 88.5467 138.71 97.4026 155.972 91.2116C173.234 85.0207 173.717 64.8964 161.773 54.0861C163.907 38.0106 150.62 23.0411 133.358 29.232Z" fill="#AB2F90"/>
<path d="M85.4447 81.2106C86.3849 83.7873 134.946 91.8643 134.946 91.8643L116.828 42.2077C116.828 42.2077 84.5046 78.6338 85.4447 81.2106Z" fill="#AB2F90"/>
<path d="M54.276 21.0376C54.2401 39.2381 69.0922 54.0218 87.449 54.0579C105.806 54.0941 120.716 39.369 120.752 21.1685C120.788 2.96807 101.88 -4.36495 87.5494 3.06498C73.0434 -4.42201 54.3118 2.83715 54.276 21.0376Z" fill="#AB2F90"/>
<path d="M87.1526 83.4571C89.9163 83.4625 114.179 40.9818 114.179 40.9818L60.9197 40.8769C60.9197 40.8769 84.3889 83.4517 87.1526 83.4571Z" fill="#AB2F90"/>
<path d="M74.5568 146.11C86.8666 132.608 85.8062 111.769 72.1884 99.5637C58.5707 87.3583 37.5523 88.409 25.2426 101.91C12.9329 115.412 22.0358 133.405 37.6998 137.391C43.4274 152.579 62.2471 159.611 74.5568 146.11Z" fill="#AB2F90"/>
<path d="M92.2468 77.9123C90.1966 76.0747 43.4964 91.5467 43.4964 91.5467L83.0058 126.958C83.0058 126.958 94.297 79.7499 92.2468 77.9123Z" fill="#AB2F90"/>
<path d="M147.604 100.17C135.347 86.6204 114.333 85.487 100.667 97.6386C87.0016 109.79 85.8591 130.625 98.1156 144.175C110.372 157.725 129.372 150.63 135.007 135.602C150.839 131.542 159.86 113.72 147.604 100.17Z" fill="#AB2F90"/>
<path d="M81.0452 75.5937C78.9878 77.4232 89.6273 125.09 89.6273 125.09L129.276 89.8341C129.276 89.8341 83.1027 73.7642 81.0452 75.5937Z" fill="#AB2F90"/>
<path d="M33.8452 88.8529C47.4845 93.8053 62.5901 86.8575 67.5846 73.3345C72.579 59.8116 65.571 44.8344 51.9318 39.882C38.2925 34.9296 27.6768 46.884 29.3709 59.4592C19.8309 68.1267 20.2059 83.9005 33.8452 88.8529Z" fill="#F391D2"/>
<path d="M89.5508 81.5077C90.3028 79.4718 65.0108 50.088 65.0108 50.088L50.5202 89.3225C50.5202 89.3225 88.7989 83.5437 89.5508 81.5077Z" fill="#F391D2"/>
<path d="M123.559 40.0225C109.9 44.9211 102.833 59.8706 107.774 73.4131C112.715 86.9557 127.794 93.9629 141.452 89.0643C155.111 84.1656 155.493 68.2422 146.042 59.6885C147.731 46.9686 137.217 35.1239 123.559 40.0225Z" fill="#F391D2"/>
<path d="M85.6463 81.1502C86.3902 83.1891 124.814 89.5801 124.814 89.5801L110.478 50.2889C110.478 50.2889 84.9023 79.1113 85.6463 81.1502Z" fill="#F391D2"/>
<path d="M60.9813 33.5385C60.9529 47.9397 72.7047 59.6374 87.2296 59.666C101.755 59.6946 113.552 48.0433 113.581 33.642C113.609 19.2408 98.6479 13.4385 87.3091 19.3175C75.8311 13.3934 61.0096 19.1372 60.9813 33.5385Z" fill="#F391D2"/>
<path d="M86.9951 82.9287C89.1819 82.933 108.38 49.3198 108.38 49.3198L66.2381 49.2368C66.2381 49.2368 84.8083 82.9244 86.9951 82.9287Z" fill="#F391D2"/>
<path d="M77.0343 132.503C86.7744 121.82 85.9354 105.33 75.1603 95.6727C64.3851 86.0151 47.7542 86.8464 38.014 97.5295C28.2739 108.213 35.4767 122.45 47.8709 125.604C52.4029 137.621 67.2941 143.186 77.0343 132.503Z" fill="#F391D2"/>
<path d="M91.033 78.5404C89.4107 77.0864 52.4589 89.3288 52.4589 89.3288L83.721 117.348C83.721 117.348 92.6552 79.9944 91.033 78.5404Z" fill="#F391D2"/>
<path d="M134.825 96.1507C125.127 85.4294 108.499 84.5325 97.6863 94.1476C86.8732 103.763 85.9693 120.249 95.6673 130.97C105.365 141.691 120.399 136.078 124.858 124.186C137.385 120.974 144.523 106.872 134.825 96.1507Z" fill="#F391D2"/>
<path d="M82.1622 76.7052C80.5342 78.1528 88.9528 115.869 88.9528 115.869L120.325 87.9731C120.325 87.9731 83.7901 75.2576 82.1622 76.7052Z" fill="#F391D2"/>
<path d="M45.2417 84.2131C55.741 88.0254 67.369 82.6771 71.2137 72.2673C75.0584 61.8576 69.6637 50.3284 59.1644 46.5161C48.6651 42.7038 40.4933 51.9062 41.7974 61.5864C34.4537 68.2585 34.7424 80.4009 45.2417 84.2131Z" fill="#FFC3F2"/>
<path d="M88.1212 78.5597C88.7 76.9925 69.2307 54.3734 69.2307 54.3734L58.0761 84.5754C58.0761 84.5754 87.5423 80.127 88.1212 78.5597Z" fill="#FFC3F2"/>
<path d="M114.302 46.6241C103.788 50.395 98.3478 61.9029 102.151 72.3277C105.955 82.7525 117.562 88.1466 128.076 84.3757C138.59 80.6048 138.884 68.3472 131.61 61.7627C132.909 51.9711 124.816 42.8533 114.302 46.6241Z" fill="#FFC3F2"/>
<path d="M85.117 78.2851C85.6897 79.8546 115.268 84.7743 115.268 84.7743L104.232 54.5285C104.232 54.5285 84.5444 76.7156 85.117 78.2851Z" fill="#FFC3F2"/>
<path d="M66.1332 41.6323C66.1113 52.7181 75.1577 61.7228 86.3387 61.7449C97.5198 61.7669 106.601 52.7979 106.623 41.712C106.645 30.6262 95.1283 26.1597 86.3999 30.6852C77.5643 26.1249 66.155 30.5464 66.1332 41.6323Z" fill="#FFC3F2"/>
<path d="M86.1583 79.6517C87.8417 79.655 102.62 53.7801 102.62 53.7801L70.1799 53.7162C70.1799 53.7162 84.4749 79.6484 86.1583 79.6517Z" fill="#FFC3F2"/>
<path d="M78.4841 117.814C85.982 109.59 85.3361 96.897 77.0416 89.4627C68.747 82.0285 55.9448 82.6685 48.447 90.8921C40.9492 99.1157 46.4938 110.076 56.0346 112.503C59.5233 121.754 70.9863 126.038 78.4841 117.814Z" fill="#FFC3F2"/>
<path d="M89.2572 76.2757C88.0084 75.1564 59.5635 84.5804 59.5635 84.5804L83.6286 106.15C83.6286 106.15 90.506 77.395 89.2572 76.2757Z" fill="#FFC3F2"/>
<path d="M122.979 89.8313C115.514 81.5782 102.714 80.8878 94.3907 88.2894C86.0669 95.6909 85.3711 108.381 92.8364 116.635C100.302 124.888 111.875 120.566 115.307 111.412C124.95 108.94 130.445 98.0845 122.979 89.8313Z" fill="#FFC3F2"/>
<path d="M82.438 74.8619C81.1848 75.9763 87.6653 105.01 87.6653 105.01L111.815 83.5357C111.815 83.5357 83.6912 73.7476 82.438 74.8619Z" fill="#FFC3F2"/>
<ellipse cx="86.172" cy="75.5235" rx="10.0001" ry="9.91497" transform="rotate(0.112844 86.172 75.5235)" fill="white"/>
</svg>
