<svg width="298" height="299" viewBox="0 0 298 299" fill="none" xmlns="http://www.w3.org/2000/svg">
<path d="M143.5 170.674C111.82 100.34 160.176 58.2357 188.314 45.9754C205.675 124.706 201.198 156.627 143.5 170.674Z" fill="#5E8D4F" stroke="#5E8D4F" stroke-width="3"/>
<path d="M169.388 168.519C96.4861 186.713 63.1269 130.089 55.56 99.5021C134.4 97.2901 164.607 107.942 169.388 168.519Z" fill="#5E8D4F" stroke="#5E8D4F" stroke-width="3"/>
<path d="M162.723 126.616C169.085 203.248 109.159 225.681 78.4004 227.319C88.417 147.841 103.38 119.627 162.723 126.616Z" fill="#5E8D4F" stroke="#5E8D4F" stroke-width="3"/>
<path d="M135.438 127.7C207.669 151.326 207.261 216.745 198.027 246.501C128.909 206.268 108.352 181.184 135.438 127.7Z" fill="#5E8D4F" stroke="#5E8D4F" stroke-width="3"/>
<path d="M134.73 180.562C160.939 109.118 225.07 114.961 253.86 126.813C211.497 193.715 186.035 212.525 134.73 180.562Z" fill="#5E8D4F" stroke="#5E8D4F" stroke-width="3"/>
<path d="M106.634 207.387C106.594 218.668 106.418 230.244 95.3575 240.19C101.54 246.907 112.7 248.455 125.086 245.932C137.666 243.37 151.344 236.633 161.928 227.143C172.499 217.664 176.611 207.391 175.869 199.133C175.129 190.905 169.565 184.566 160.504 182.873L160.125 182.802L160.1 182.41C159.503 172.979 154.003 166.582 146.079 164.834C138.126 163.079 127.617 165.986 117.045 175.467C106.712 184.732 106.674 195.678 106.636 206.963C106.635 207.104 106.635 207.245 106.634 207.387Z" fill="#8805A8"/>
<path d="M106.634 207.387C106.594 218.668 106.418 230.244 95.3575 240.19C101.54 246.907 112.7 248.455 125.086 245.932C137.666 243.37 151.344 236.633 161.928 227.143C172.499 217.664 176.611 207.391 175.869 199.133C175.129 190.905 169.565 184.566 160.504 182.873L160.125 182.802L160.1 182.41C159.503 172.979 154.003 166.582 146.079 164.834C138.126 163.079 127.617 165.986 117.045 175.467C106.712 184.732 106.674 195.678 106.636 206.963C106.635 207.104 106.635 207.245 106.634 207.387Z" fill="#8805A8"/>
<path d="M106.634 207.387C106.594 218.668 106.418 230.244 95.3575 240.19C101.54 246.907 112.7 248.455 125.086 245.932C137.666 243.37 151.344 236.633 161.928 227.143C172.499 217.664 176.611 207.391 175.869 199.133C175.129 190.905 169.565 184.566 160.504 182.873L160.125 182.802L160.1 182.41C159.503 172.979 154.003 166.582 146.079 164.834C138.126 163.079 127.617 165.986 117.045 175.467C106.712 184.732 106.674 195.678 106.636 206.963C106.635 207.104 106.635 207.245 106.634 207.387Z" fill="#8805A8"/>
<path d="M106.634 207.387C106.594 218.668 106.418 230.244 95.3575 240.19C101.54 246.907 112.7 248.455 125.086 245.932C137.666 243.37 151.344 236.633 161.928 227.143C172.499 217.664 176.611 207.391 175.869 199.133C175.129 190.905 169.565 184.566 160.504 182.873L160.125 182.802L160.1 182.41C159.503 172.979 154.003 166.582 146.079 164.834C138.126 163.079 127.617 165.986 117.045 175.467C106.712 184.732 106.674 195.678 106.636 206.963C106.635 207.104 106.635 207.245 106.634 207.387Z" stroke="#8805A8"/>
<path d="M82.2125 128.35C72.0706 133.536 61.6003 138.732 47.7394 132.828C44.4433 141.832 48.0342 153.168 55.819 163.767C63.7227 174.529 75.8608 184.398 89.0916 190.054C102.304 195.702 113.356 194.852 120.443 190.319C127.512 185.798 130.728 177.561 128.209 168.159L128.111 167.791L128.429 167.599C136.639 162.658 139.939 154.456 137.975 146.106C136.006 137.734 128.714 129.101 115.5 123.453C102.583 117.931 92.7409 122.965 82.5902 128.157C82.4643 128.221 82.3384 128.286 82.2125 128.35Z" fill="#8805A8"/>
<path d="M82.2125 128.35C72.0706 133.536 61.6003 138.732 47.7394 132.828C44.4433 141.832 48.0342 153.168 55.819 163.767C63.7227 174.529 75.8608 184.398 89.0916 190.054C102.304 195.702 113.356 194.852 120.443 190.319C127.512 185.798 130.728 177.561 128.209 168.159L128.111 167.791L128.429 167.599C136.639 162.658 139.939 154.456 137.975 146.106C136.006 137.734 128.714 129.101 115.5 123.453C102.583 117.931 92.7409 122.965 82.5902 128.157C82.4643 128.221 82.3384 128.286 82.2125 128.35Z" fill="#8805A8"/>
<path d="M82.2125 128.35C72.0706 133.536 61.6003 138.732 47.7394 132.828C44.4433 141.832 48.0342 153.168 55.819 163.767C63.7227 174.529 75.8608 184.398 89.0916 190.054C102.304 195.702 113.356 194.852 120.443 190.319C127.512 185.798 130.728 177.561 128.209 168.159L128.111 167.791L128.429 167.599C136.639 162.658 139.939 154.456 137.975 146.106C136.006 137.734 128.714 129.101 115.5 123.453C102.583 117.931 92.7409 122.965 82.5902 128.157C82.4643 128.221 82.3384 128.286 82.2125 128.35Z" fill="#8805A8"/>
<path d="M82.2125 128.35C72.0706 133.536 61.6003 138.732 47.7394 132.828C44.4433 141.832 48.0342 153.168 55.819 163.767C63.7227 174.529 75.8608 184.398 89.0916 190.054C102.304 195.702 113.356 194.852 120.443 190.319C127.512 185.798 130.728 177.561 128.209 168.159L128.111 167.791L128.429 167.599C136.639 162.658 139.939 154.456 137.975 146.106C136.006 137.734 128.714 129.101 115.5 123.453C102.583 117.931 92.7409 122.965 82.5902 128.157C82.4643 128.221 82.3384 128.286 82.2125 128.35Z" stroke="#8805A8"/>
<path d="M154.818 79.6158C145.98 71.8744 137.002 63.8277 136.939 48.6421C127.295 48.7197 118.241 56.1321 111.54 67.2452C104.737 78.5268 100.447 93.4916 100.49 107.994C100.533 122.477 105.725 132.617 112.743 137.704C119.742 142.779 128.643 142.895 136.336 137.182L136.635 136.96L136.937 137.191C144.78 143.195 153.682 143.403 160.623 138.587C167.582 133.758 172.659 123.808 172.616 109.324C172.574 95.1632 163.995 87.6509 155.148 79.9045C155.038 79.8083 154.928 79.7121 154.818 79.6158Z" fill="#8805A8"/>
<path d="M154.818 79.6158C145.98 71.8744 137.002 63.8277 136.939 48.6421C127.295 48.7197 118.241 56.1321 111.54 67.2452C104.737 78.5268 100.447 93.4916 100.49 107.994C100.533 122.477 105.725 132.617 112.743 137.704C119.742 142.779 128.643 142.895 136.336 137.182L136.635 136.96L136.937 137.191C144.78 143.195 153.682 143.403 160.623 138.587C167.582 133.758 172.659 123.808 172.616 109.324C172.574 95.1632 163.995 87.6509 155.148 79.9045C155.038 79.8083 154.928 79.7121 154.818 79.6158Z" fill="#8805A8"/>
<path d="M154.818 79.6158C145.98 71.8744 137.002 63.8277 136.939 48.6421C127.295 48.7197 118.241 56.1321 111.54 67.2452C104.737 78.5268 100.447 93.4916 100.49 107.994C100.533 122.477 105.725 132.617 112.743 137.704C119.742 142.779 128.643 142.895 136.336 137.182L136.635 136.96L136.937 137.191C144.78 143.195 153.682 143.403 160.623 138.587C167.582 133.758 172.659 123.808 172.616 109.324C172.574 95.1632 163.995 87.6509 155.148 79.9045C155.038 79.8083 154.928 79.7121 154.818 79.6158Z" fill="#8805A8"/>
<path d="M154.818 79.6158C145.98 71.8744 137.002 63.8277 136.939 48.6421C127.295 48.7197 118.241 56.1321 111.54 67.2452C104.737 78.5268 100.447 93.4916 100.49 107.994C100.533 122.477 105.725 132.617 112.743 137.704C119.742 142.779 128.643 142.895 136.336 137.182L136.635 136.96L136.937 137.191C144.78 143.195 153.682 143.403 160.623 138.587C167.582 133.758 172.659 123.808 172.616 109.324C172.574 95.1632 163.995 87.6509 155.148 79.9045C155.038 79.8083 154.928 79.7121 154.818 79.6158Z" stroke="#8805A8"/>
<path d="M222.605 121.562C223.469 109.872 224.493 97.8793 236.57 89.2027C230.708 81.2568 219.346 77.9797 206.46 78.7464C193.38 79.5247 178.873 84.469 167.338 92.7299C155.822 100.977 150.854 111.014 151.012 119.703C151.169 128.378 156.432 135.812 165.616 138.931L165.956 139.046L165.953 139.409C165.875 149.305 171.064 156.795 179.082 159.802C187.115 162.815 198.094 161.364 209.611 153.117C220.87 145.054 221.708 133.707 222.573 121.991C222.584 121.848 222.594 121.705 222.605 121.562Z" fill="#8805A8"/>
<path d="M222.605 121.562C223.469 109.872 224.493 97.8793 236.57 89.2027C230.708 81.2568 219.346 77.9797 206.46 78.7464C193.38 79.5247 178.873 84.469 167.338 92.7299C155.822 100.977 150.854 111.014 151.012 119.703C151.169 128.378 156.432 135.812 165.616 138.931L165.956 139.046L165.953 139.409C165.875 149.305 171.064 156.795 179.082 159.802C187.115 162.815 198.094 161.364 209.611 153.117C220.87 145.054 221.708 133.707 222.573 121.991C222.584 121.848 222.594 121.705 222.605 121.562Z" fill="#8805A8"/>
<path d="M222.605 121.562C223.469 109.872 224.493 97.8793 236.57 89.2027C230.708 81.2568 219.346 77.9797 206.46 78.7464C193.38 79.5247 178.873 84.469 167.338 92.7299C155.822 100.977 150.854 111.014 151.012 119.703C151.169 128.378 156.432 135.812 165.616 138.931L165.956 139.046L165.953 139.409C165.875 149.305 171.064 156.795 179.082 159.802C187.115 162.815 198.094 161.364 209.611 153.117C220.87 145.054 221.708 133.707 222.573 121.991C222.584 121.848 222.594 121.705 222.605 121.562Z" fill="#8805A8"/>
<path d="M222.605 121.562C223.469 109.872 224.493 97.8793 236.57 89.2027C230.708 81.2568 219.346 77.9797 206.46 78.7464C193.38 79.5247 178.873 84.469 167.338 92.7299C155.822 100.977 150.854 111.014 151.012 119.703C151.169 128.378 156.432 135.812 165.616 138.931L165.956 139.046L165.953 139.409C165.875 149.305 171.064 156.795 179.082 159.802C187.115 162.815 198.094 161.364 209.611 153.117C220.87 145.054 221.708 133.707 222.573 121.991C222.584 121.848 222.594 121.705 222.605 121.562Z" stroke="#8805A8"/>
<path d="M204.354 209.022C215.833 208.015 227.621 207.121 238.418 217.824C244.904 210.692 245.797 198.8 242.472 186.015C239.097 173.036 231.408 159.294 221.107 149.059C210.821 138.838 200.117 135.472 191.754 137.021C183.413 138.566 177.292 145.016 176.121 154.706L176.075 155.084L175.705 155.142C166.133 156.649 159.947 163.035 158.65 171.537C157.349 180.064 160.952 190.834 171.24 201.056C181.297 211.049 192.438 210.07 203.925 209.06C204.068 209.047 204.211 209.035 204.354 209.022Z" fill="#8805A8"/>
<path d="M204.354 209.022C215.833 208.015 227.621 207.121 238.418 217.824C244.904 210.692 245.797 198.8 242.472 186.015C239.097 173.036 231.408 159.294 221.107 149.059C210.821 138.838 200.117 135.472 191.754 137.021C183.413 138.566 177.292 145.016 176.121 154.706L176.075 155.084L175.705 155.142C166.133 156.649 159.947 163.035 158.65 171.537C157.349 180.064 160.952 190.834 171.24 201.056C181.297 211.049 192.438 210.07 203.925 209.06C204.068 209.047 204.211 209.035 204.354 209.022Z" fill="#8805A8"/>
<path d="M204.354 209.022C215.833 208.015 227.621 207.121 238.418 217.824C244.904 210.692 245.797 198.8 242.472 186.015C239.097 173.036 231.408 159.294 221.107 149.059C210.821 138.838 200.117 135.472 191.754 137.021C183.413 138.566 177.292 145.016 176.121 154.706L176.075 155.084L175.705 155.142C166.133 156.649 159.947 163.035 158.65 171.537C157.349 180.064 160.952 190.834 171.24 201.056C181.297 211.049 192.438 210.07 203.925 209.06C204.068 209.047 204.211 209.035 204.354 209.022Z" fill="#8805A8"/>
<path d="M204.354 209.022C215.833 208.015 227.621 207.121 238.418 217.824C244.904 210.692 245.797 198.8 242.472 186.015C239.097 173.036 231.408 159.294 221.107 149.059C210.821 138.838 200.117 135.472 191.754 137.021C183.413 138.566 177.292 145.016 176.121 154.706L176.075 155.084L175.705 155.142C166.133 156.649 159.947 163.035 158.65 171.537C157.349 180.064 160.952 190.834 171.24 201.056C181.297 211.049 192.438 210.07 203.925 209.06C204.068 209.047 204.211 209.035 204.354 209.022Z" stroke="#8805A8"/>
<path d="M116.901 175.4C100.777 193.885 123.399 215.377 106.296 234.505C119.286 246.318 147.818 236.666 163.942 218.181C180.065 199.696 173.138 180.109 156.401 178.47C152.733 161.55 133.024 156.915 116.901 175.4Z" fill="#B53AD4"/>
<path d="M113.533 123.863C88.3871 117.435 80.5283 148.614 54.2923 141.571C50.2597 159.228 73.7839 181.376 98.9294 187.804C124.075 194.231 138.311 178.606 131.152 162.203C144.646 150.87 138.678 130.29 113.533 123.863Z" fill="#B53AD4"/>
<path d="M170.467 108.016C168.769 82.7687 136.184 83.6389 134.738 57.2076C116.416 58.0919 102.42 85.9709 104.118 111.218C105.816 136.466 125.383 145.675 138.975 134.639C154.164 144.286 172.164 133.264 170.467 108.016Z" fill="#B53AD4"/>
<path d="M207.465 146.981C228.063 131.235 210.074 105.895 231.814 89.6726C221.363 75.6501 190.217 80.4544 169.618 96.2012C149.02 111.948 151.536 132.715 168.127 137.198C167.953 154.743 186.867 162.728 207.465 146.981Z" fill="#B53AD4"/>
<path d="M170.267 195.87C189.935 211.884 210.093 187.164 230.472 204.174C241.516 190.004 229.928 160.57 210.26 144.556C190.592 128.541 171.324 136.729 170.771 154.341C153.975 158.988 150.599 179.856 170.267 195.87Z" fill="#B53AD4"/>
<path d="M116.347 123.024C94.2176 121.371 91.6984 151.558 68.5651 149.521C67.4921 166.545 90.3319 183.02 112.461 184.674C134.59 186.327 144.567 169.441 136.335 155.488C146.252 142.699 138.476 124.677 116.347 123.024Z" fill="#D76AF2"/>
<path d="M169.531 108.12C162.577 86.5602 133.984 94.5689 126.997 71.924C111.004 76.7704 104.663 104.11 111.617 125.671C118.57 147.231 137.843 150.878 147.465 138.264C162.965 143.265 176.484 129.681 169.531 108.12Z" fill="#D76AF2"/>
<path d="M204.429 151.336C219.474 134.228 197.724 113.014 213.689 95.3247C201.208 83.6463 174.272 91.9367 159.228 109.045C144.183 126.153 151.019 145.049 166.918 147.146C170.626 163.395 189.384 168.444 204.429 151.336Z" fill="#D76AF2"/>
<path d="M165.677 190.569C185.627 203.201 201.827 178.058 222.541 191.532C231.352 177.177 219.527 153.908 199.577 141.276C179.626 128.645 160.553 135.689 161.858 152.059C146.713 158.238 145.727 177.938 165.677 190.569Z" fill="#D76AF2"/>
<path d="M116.087 167.872C104.954 187.142 130.248 203.739 118.341 223.737C132.758 232.782 157.162 219.897 168.295 200.627C179.427 181.357 169.029 164.309 153.224 165.152C146.382 150.1 127.22 148.602 116.087 167.872Z" fill="#D76AF2"/>
<ellipse cx="148.662" cy="151.129" rx="14.6395" ry="15.0426" transform="rotate(-24.4483 148.662 151.129)" fill="white"/>
</svg>
