<svg width="195" height="208" viewBox="0 0 195 208" fill="none" xmlns="http://www.w3.org/2000/svg">
<path d="M157.223 94.2144C155.02 58.9709 102.538 32.9257 97.5123 32.9138C107.786 26.8799 43.5763 63.9977 45.7791 99.2411C47.982 134.485 80.5877 147.181 103.684 131.657C128.93 145.001 159.426 129.458 157.223 94.2144Z" fill="#FF7373"/>
<path d="M104.577 96.3709C100.546 62.7472 70.9607 38.5934 68.3302 38.6507C73.2127 32.7487 42.6496 69.0691 46.6806 102.693C50.7116 136.316 68.8078 147.995 79.6239 132.856C93.9225 145.253 108.608 129.995 104.577 96.3709Z" fill="#FF4040"/>
<path d="M153.369 97.3894C154.955 64.9414 131.345 36.8823 128.897 36.4682C134.359 31.7674 100.268 60.6037 98.6828 93.0517C97.0973 125.5 112.028 139.741 124.455 127.379C135.75 141.623 151.784 129.837 153.369 97.3894Z" fill="#FF4040"/>
<path d="M85.9283 109.899C71.2992 122.693 74.1669 132.081 98.2076 152.484C131.753 141.352 126.684 131.683 120.224 114.81C120.224 114.81 99.3525 79.8614 98.9378 87.6373C98.523 95.4132 85.9283 109.899 85.9283 109.899Z" fill="#5E8D4F" stroke="#5E8D4F" stroke-width="3"/>
<path d="M93.2996 157.332C93.6796 92.4207 143.99 77.7167 169.097 78.4786C155.205 144.645 141.006 167.34 93.2996 157.332Z" fill="#5E8D4F" stroke="#5E8D4F" stroke-width="3"/>
<path d="M103.275 155.858C106.508 96.6293 60.2888 84.6406 36.7749 86.0499C46.1036 146.04 58.1232 166.348 103.275 155.858Z" fill="#5E8D4F" stroke="#5E8D4F" stroke-width="3"/>
</svg>
