<svg width="192" height="196" viewBox="0 0 192 196" fill="none" xmlns="http://www.w3.org/2000/svg">
<path d="M134.303 69.9224C133.256 48.7942 102.858 49.3745 102.07 27.2572C84.9691 27.9139 71.3293 51.1723 72.3771 72.3005C73.4248 93.4286 91.4723 101.221 104.379 92.0511C118.335 100.19 135.351 91.0505 134.303 69.9224Z" fill="#F283A8"/>
<path d="M57.8035 88.0201C58.2552 120.606 81.6457 146.997 110.048 146.966C138.45 146.935 161.129 119.878 162.852 87.8231C120.106 73.6195 157.171 14.6686 113.363 56.8253C63.4269 83.126 65.4995 14.7629 57.8035 88.0201Z" fill="#F03C79"/>
<path d="M84.6912 103.591C70.1289 115.672 72.9238 124.466 96.6469 143.484C129.948 132.865 124.972 123.819 118.655 108.021C118.655 108.021 98.1458 75.3368 97.6957 82.6351C97.2457 89.9334 84.6912 103.591 84.6912 103.591Z" fill="#5E8D4F" stroke="#5E8D4F" stroke-width="3"/>
<path d="M91.7591 148.059C92.4613 87.1501 142.395 73.0914 167.273 73.6757C153.174 135.832 138.988 157.2 91.7591 148.059Z" fill="#5E8D4F" stroke="#5E8D4F" stroke-width="3"/>
<path d="M101.651 146.625C105.153 91.034 59.4077 80.0255 36.0974 81.4702C45.0416 137.71 56.8516 156.703 101.651 146.625Z" fill="#5E8D4F" stroke="#5E8D4F" stroke-width="3"/>
</svg>
