<svg width="192" height="199" viewBox="0 0 192 199" fill="none" xmlns="http://www.w3.org/2000/svg">
<path d="M154.971 89.967C152.907 56.344 101.179 31.6619 96.2175 31.6669C106.379 25.8757 42.8746 61.5033 44.9387 95.1263C47.0028 128.749 79.1512 140.759 102.001 125.87C126.882 138.521 157.035 123.59 154.971 89.967Z" fill="#FFDA73"/>
<path d="M102.993 92.1975C99.1195 60.1262 69.9886 37.1743 67.3915 37.2375C72.2301 31.5898 41.9444 66.347 45.8183 98.4184C49.6922 130.49 67.5201 141.575 78.2452 127.093C92.3218 138.877 106.867 124.269 102.993 92.1975Z" fill="#FFBC00"/>
<path d="M151.159 93.0101C152.826 62.0423 129.607 35.3445 127.191 34.9573C132.598 30.4539 98.8536 58.0812 97.1866 89.0489C95.5196 120.017 110.215 133.558 122.521 121.721C133.627 135.277 149.492 123.978 151.159 93.0101Z" fill="#FFBC00"/>
<path d="M84.5401 105.166C70.0581 117.421 72.8596 126.371 96.5286 145.761C129.68 135.03 124.706 125.82 118.381 109.74C118.381 109.74 97.8866 76.4594 97.4527 83.8808C97.0189 91.3021 84.5401 105.166 84.5401 105.166Z" fill="#5E8D4F" stroke="#5E8D4F" stroke-width="3"/>
<path d="M91.6663 150.403C92.245 88.4614 141.957 74.2668 166.741 74.9121C152.819 138.095 138.73 159.797 91.6663 150.403Z" fill="#5E8D4F" stroke="#5E8D4F" stroke-width="3"/>
<path d="M101.516 148.964C104.894 92.4364 59.3037 81.1469 36.0865 82.5682C45.1076 139.781 56.9096 159.121 101.516 148.964Z" fill="#5E8D4F" stroke="#5E8D4F" stroke-width="3"/>
</svg>
