<svg width="191" height="204" viewBox="0 0 191 204" fill="none" xmlns="http://www.w3.org/2000/svg">
<path d="M133.463 72.8601C132.317 50.7737 102.171 51.2203 101.277 28.1016C84.3205 28.6979 70.9105 52.9334 72.0567 75.0197C73.203 97.1061 91.142 105.345 103.896 95.8292C117.779 104.408 134.61 94.9464 133.463 72.8601Z" fill="#D66AF2"/>
<path d="M57.6829 91.3703C58.2961 125.428 81.6286 153.132 109.797 153.249C137.966 153.366 160.323 125.208 161.869 91.717C119.401 76.6481 155.864 15.2337 112.629 59.061C63.2354 86.2851 64.9445 14.8503 57.6829 91.3703Z" fill="#B53AD4"/>
<path d="M84.4347 107.785C70.0531 120.334 72.8696 129.54 96.4946 149.541C129.469 138.617 124.488 129.137 118.142 112.594C118.142 112.594 97.6357 78.328 97.2264 85.9531C96.817 93.5782 84.4347 107.785 84.4347 107.785Z" fill="#5E8D4F" stroke="#5E8D4F" stroke-width="3"/>
<path d="M91.666 154.296C92.0537 90.6441 141.506 76.2141 166.184 76.9555C152.515 141.84 138.554 164.098 91.666 154.296Z" fill="#5E8D4F" stroke="#5E8D4F" stroke-width="3"/>
<path d="M101.473 152.848C104.664 94.7685 59.2386 83.0231 36.1268 84.4103C45.2828 143.233 57.0922 163.144 101.473 152.848Z" fill="#5E8D4F" stroke="#5E8D4F" stroke-width="3"/>
</svg>
