<svg width="195" height="208" viewBox="0 0 195 208" fill="none" xmlns="http://www.w3.org/2000/svg">
<path d="M157.223 94.2153C155.02 58.9719 102.538 32.9267 97.5123 32.9148C107.786 26.8809 43.5763 63.9987 45.7791 99.2421C47.982 134.486 80.5877 147.182 103.684 131.658C128.93 145.002 159.426 129.459 157.223 94.2153Z" fill="#C3D0FF"/>
<path d="M104.577 96.3719C100.546 62.7482 70.9607 38.5944 68.3302 38.6517C73.2127 32.7496 42.6496 69.0701 46.6806 102.694C50.7116 136.317 68.8078 147.996 79.6239 132.857C93.9225 145.254 108.608 129.996 104.577 96.3719Z" fill="#91A1F3"/>
<path d="M153.369 97.3903C154.955 64.9423 131.345 36.8833 128.897 36.4692C134.359 31.7683 100.268 60.6047 98.6828 93.0527C97.0973 125.501 112.028 139.742 124.455 127.38C135.75 141.624 151.784 129.838 153.369 97.3903Z" fill="#91A1F3"/>
<path d="M85.9283 109.9C71.2992 122.694 74.1669 132.082 98.2076 152.485C131.753 141.353 126.684 131.684 120.224 114.811C120.224 114.811 99.3525 79.8624 98.9378 87.6383C98.523 95.4142 85.9283 109.9 85.9283 109.9Z" fill="#5E8D4F" stroke="#5E8D4F" stroke-width="3"/>
<path d="M93.2996 157.333C93.6796 92.4216 143.99 77.7176 169.097 78.4796C155.205 144.646 141.006 167.341 93.2996 157.333Z" fill="#5E8D4F" stroke="#5E8D4F" stroke-width="3"/>
<path d="M103.275 155.859C106.508 96.6302 60.2888 84.6416 36.7749 86.0508C46.1036 146.041 58.1232 166.349 103.275 155.859Z" fill="#5E8D4F" stroke="#5E8D4F" stroke-width="3"/>
</svg>
