<svg width="200" height="204" viewBox="0 0 200 204" fill="none" xmlns="http://www.w3.org/2000/svg">
<path d="M139.458 72.7829C138.364 50.7867 106.803 51.3826 105.978 28.3567C88.2231 29.0357 74.067 53.2456 75.1604 75.2417C76.2539 97.2378 94.9946 105.355 108.393 95.8122C122.886 104.289 140.551 94.779 139.458 72.7829Z" fill="#FFB573"/>
<path d="M60.0318 91.6026C60.5094 125.527 84.8027 153.008 114.292 152.984C143.782 152.959 167.323 124.797 169.103 91.4262C124.716 76.6276 163.186 15.2657 117.711 59.1418C65.8693 86.509 68.0033 15.3389 60.0318 91.6026Z" fill="#FF9A40"/>
<path d="M87.9533 107.821C72.8365 120.393 75.7407 129.55 100.377 149.356C134.951 138.309 129.783 128.89 123.219 112.442C123.219 112.442 101.916 78.4098 101.45 86.0077C100.985 93.6056 87.9533 107.821 87.9533 107.821Z" fill="#5E8D4F" stroke="#5E8D4F" stroke-width="3"/>
<path d="M95.3082 154.116C96.0213 90.7059 147.863 76.0836 173.695 76.6986C159.072 141.404 144.348 163.646 95.3082 154.116Z" fill="#5E8D4F" stroke="#5E8D4F" stroke-width="3"/>
<path d="M105.577 152.626C109.198 94.753 61.6978 83.28 37.4951 84.7776C46.7967 143.33 59.0639 163.105 105.577 152.626Z" fill="#5E8D4F" stroke="#5E8D4F" stroke-width="3"/>
</svg>
