<svg width="183" height="186" viewBox="0 0 183 186" fill="none" xmlns="http://www.w3.org/2000/svg">
<path d="M74.3689 33.2957C74.69 53.3658 84.1402 75.2952 96.1514 75.2363C108.163 75.1774 118.186 53.1525 117.865 33.0824C117.544 13.0123 105.034 5.02776 95.799 13.298C86.1663 5.12 74.0479 13.2256 74.3689 33.2957Z" fill="#F283A8"/>
<path d="M44.3695 43.371C44.6906 63.4411 57.3521 85.3548 73.6023 85.2751C89.8525 85.1954 103.538 63.1525 103.217 43.0824C102.896 23.0123 86.0161 15.0492 73.475 23.3356C60.4892 15.1741 44.0485 23.3009 44.3695 43.371Z" fill="#F03C79"/>
<path d="M89.3695 42.371C89.6906 62.4411 102.352 84.3548 118.602 84.2751C134.853 84.1954 148.538 62.1525 148.217 42.0824C147.896 22.0123 131.016 14.0492 118.475 22.3356C105.489 14.1741 89.0485 22.3009 89.3695 42.371Z" fill="#F03C79"/>
<path d="M122.062 62.9443C122.518 95.9908 138.458 126.29 108.891 126.324C79.324 126.358 72.1164 94.556 71.2759 63.0563C71.2757 39.5927 81.257 42.1826 95.7578 47.0928C100.257 48.183 121.605 29.8979 122.062 62.9443Z" fill="#E1004C"/>
<path d="M83.0616 45.9443C83.5177 78.9908 99.4582 109.29 69.8911 109.324C40.324 109.358 33.1164 77.556 32.2759 46.0563C32.2757 22.5927 42.257 25.1826 56.7578 30.0928C61.2565 31.183 82.6055 12.8979 83.0616 45.9443Z" fill="#E1004C"/>
<path d="M108.257 43.9968C108.713 77.0433 93.9584 107.378 122.86 107.344C151.762 107.311 157.939 75.4935 157.901 43.9929C157.261 20.5299 147.575 23.1426 133.535 28.0857C129.167 29.1861 107.801 10.9504 108.257 43.9968Z" fill="#E1004C"/>
<path d="M80.4117 98.3021C66.5828 109.766 69.2362 118.111 91.762 136.156C123.385 126.077 118.661 117.493 112.663 102.503C112.663 102.503 93.1899 71.4913 92.7621 78.4166C92.3342 85.3419 80.4117 98.3021 80.4117 98.3021Z" fill="#5E8D4F" stroke="#5E8D4F" stroke-width="3"/>
<path d="M87.1226 140.496C87.7935 82.7006 135.21 69.3571 158.835 69.9097C145.442 128.89 131.97 149.167 87.1226 140.496Z" fill="#5E8D4F" stroke="#5E8D4F" stroke-width="3"/>
<path d="M96.5158 139.135C99.8447 86.3845 56.4065 75.9419 34.2712 77.3144C42.7608 130.679 53.9741 148.7 96.5158 139.135Z" fill="#5E8D4F" stroke="#5E8D4F" stroke-width="3"/>
</svg>
