<svg width="195" height="208" viewBox="0 0 195 208" fill="none" xmlns="http://www.w3.org/2000/svg">
<path d="M157.219 94.2144C155.016 58.9709 102.534 32.9257 97.5084 32.9138C107.783 26.8799 43.5724 63.9977 45.7752 99.2411C47.9781 134.485 80.5838 147.181 103.68 131.657C128.926 145.001 159.422 129.458 157.219 94.2144Z" fill="#F16C97"/>
<path d="M104.573 96.3709C100.542 62.7472 70.9568 38.5934 68.3263 38.6507C73.2088 32.7487 42.6457 69.0691 46.6767 102.693C50.7077 136.316 68.8039 147.995 79.62 132.856C93.9186 145.253 108.604 129.995 104.573 96.3709Z" fill="#D73E6F"/>
<path d="M153.365 97.3894C154.951 64.9414 131.341 36.8823 128.893 36.4682C134.355 31.7674 100.264 60.6037 98.6789 93.0517C97.0934 125.5 112.024 139.741 124.451 127.379C135.746 141.623 151.78 129.837 153.365 97.3894Z" fill="#D73E6F"/>
<path d="M85.9244 109.899C71.2953 122.693 74.163 132.081 98.2037 152.484C131.749 141.352 126.68 131.683 120.22 114.81C120.22 114.81 99.3486 79.8614 98.9339 87.6373C98.5191 95.4132 85.9244 109.899 85.9244 109.899Z" fill="#5E8D4F" stroke="#5E8D4F" stroke-width="3"/>
<path d="M93.2957 157.332C93.6757 92.4207 143.986 77.7167 169.093 78.4786C155.201 144.645 141.002 167.34 93.2957 157.332Z" fill="#5E8D4F" stroke="#5E8D4F" stroke-width="3"/>
<path d="M103.271 155.858C106.504 96.6293 60.2849 84.6406 36.771 86.0499C46.0997 146.04 58.1192 166.348 103.271 155.858Z" fill="#5E8D4F" stroke="#5E8D4F" stroke-width="3"/>
</svg>
