<svg width="183" height="186" viewBox="0 0 183 186" fill="none" xmlns="http://www.w3.org/2000/svg">
<path d="M74.3689 33.2947C74.69 53.3649 84.1402 75.2942 96.1514 75.2353C108.163 75.1764 118.186 53.1515 117.865 33.0814C117.544 13.0113 105.034 5.02678 95.799 13.297C86.1663 5.11902 74.0479 13.2246 74.3689 33.2947Z" fill="#FFE28E"/>
<path d="M44.3695 43.37C44.6906 63.4401 57.3521 85.3538 73.6023 85.2741C89.8525 85.1944 103.538 63.1515 103.217 43.0814C102.896 23.0113 86.0161 15.0482 73.475 23.3346C60.4892 15.1731 44.0485 23.2999 44.3695 43.37Z" fill="#FFD14D"/>
<path d="M89.3695 42.37C89.6906 62.4401 102.352 84.3538 118.602 84.2741C134.853 84.1944 148.538 62.1515 148.217 42.0814C147.896 22.0113 131.016 14.0482 118.475 22.3346C105.489 14.1731 89.0485 22.2999 89.3695 42.37Z" fill="#FFD14D"/>
<path d="M122.062 62.9434C122.518 95.9898 138.458 126.289 108.891 126.323C79.324 126.357 72.1164 94.555 71.2759 63.0554C71.2757 39.5917 81.257 42.1816 95.7578 47.0918C100.257 48.182 121.605 29.8969 122.062 62.9434Z" fill="#FFBE00"/>
<path d="M83.0616 45.9434C83.5177 78.9898 99.4582 109.289 69.8911 109.323C40.324 109.357 33.1164 77.555 32.2759 46.0554C32.2757 22.5917 42.257 25.1816 56.7578 30.0918C61.2565 31.182 82.6055 12.8969 83.0616 45.9434Z" fill="#FFBE00"/>
<path d="M108.257 43.9959C108.713 77.0423 93.9584 107.377 122.86 107.343C151.762 107.31 157.939 75.4925 157.901 43.9919C157.261 20.529 147.575 23.1416 133.535 28.0847C129.167 29.1852 107.801 10.9494 108.257 43.9959Z" fill="#FFBE00"/>
<path d="M80.4117 98.3011C66.5828 109.765 69.2362 118.11 91.762 136.155C123.385 126.076 118.661 117.492 112.663 102.502C112.663 102.502 93.1899 71.4903 92.7621 78.4156C92.3342 85.3409 80.4117 98.3011 80.4117 98.3011Z" fill="#5E8D4F" stroke="#5E8D4F" stroke-width="3"/>
<path d="M87.1226 140.495C87.7935 82.6996 135.21 69.3561 158.835 69.9088C145.442 128.889 131.97 149.166 87.1226 140.495Z" fill="#5E8D4F" stroke="#5E8D4F" stroke-width="3"/>
<path d="M96.5158 139.134C99.8447 86.3835 56.4065 75.9409 34.2712 77.3134C42.7608 130.678 53.9741 148.699 96.5158 139.134Z" fill="#5E8D4F" stroke="#5E8D4F" stroke-width="3"/>
</svg>
