<svg width="183" height="186" viewBox="0 0 183 186" fill="none" xmlns="http://www.w3.org/2000/svg">
<path d="M127.525 66.3501C126.532 46.302 97.6663 46.8547 96.9193 25.868C80.6809 26.4923 67.7271 48.5628 68.7207 68.6109C69.7142 88.659 86.8513 96.0519 99.1076 87.3497C112.36 95.0714 128.519 86.3982 127.525 66.3501Z" fill="#FFE28E"/>
<path d="M54.8808 83.5277C55.3075 114.448 77.517 139.488 104.487 139.457C131.457 139.426 152.995 113.75 154.633 83.3335C114.043 69.8589 149.244 13.9186 107.641 53.9235C60.221 78.8833 62.1936 14.0145 54.8808 83.5277Z" fill="#FFD14D"/>
<path d="M80.4117 98.3011C66.5828 109.765 69.2362 118.11 91.762 136.155C123.385 126.076 118.661 117.492 112.663 102.502C112.663 102.502 93.1899 71.4903 92.7621 78.4156C92.3342 85.3409 80.4117 98.3011 80.4117 98.3011Z" fill="#5E8D4F" stroke="#5E8D4F" stroke-width="3"/>
<path d="M87.1226 140.495C87.7935 82.6996 135.21 69.3561 158.835 69.9088C145.442 128.889 131.97 149.166 87.1226 140.495Z" fill="#5E8D4F" stroke="#5E8D4F" stroke-width="3"/>
<path d="M96.5158 139.134C99.8447 86.3835 56.4065 75.9409 34.2712 77.3134C42.7608 130.678 53.9741 148.699 96.5158 139.134Z" fill="#5E8D4F" stroke="#5E8D4F" stroke-width="3"/>
</svg>
