<svg width="506" height="209" viewBox="0 0 506 209" fill="none" xmlns="http://www.w3.org/2000/svg">
<path d="M266.407 69.7192C266.407 59.3816 257.362 51.0665 246.118 50.8418H207.984V56.2353V105.002H223.629V88.5966H237.318L251.251 105.002H267.873L252.962 87.473C260.784 84.7762 266.407 77.8095 266.407 69.7192ZM223.629 62.7525H244.162H245.384H246.118C250.029 62.7525 253.451 65.8988 253.451 69.4945C253.451 73.0902 250.273 76.2364 246.362 76.2364H246.118L244.162 76.4612H223.384L223.629 62.7525Z" fill="#EC1C24"/>
<path d="M96.5161 50.6172H58.3828V104.777H74.0273V88.372H96.2717C107.516 88.372 116.805 79.8322 116.805 69.4946C116.805 59.3817 107.761 50.8419 96.5161 50.6172ZM96.5161 76.4613H94.5606H74.0273V62.7527H94.805H96.0273H96.7606C100.672 62.7527 104.094 65.8989 104.094 69.4946C103.605 73.315 100.672 76.2365 96.5161 76.4613Z" fill="#EC1C24"/>
<path d="M164.227 50.6172H148.827L122.672 105.002H138.072L141.494 98.0355H171.805L175.227 105.002H190.383L164.227 50.6172ZM165.939 85.9H147.116L156.405 66.5731L165.939 85.9Z" fill="#EC1C24"/>
<path d="M431.161 105.002H446.561L420.161 50.6172H404.761L378.605 105.002H394.005L397.428 98.0355H427.739L431.161 105.002ZM403.05 85.9L412.339 66.5731L421.628 85.9H403.05Z" fill="#EC1C24"/>
<path d="M325.804 77.1355L305.759 50.6172H290.359V105.002H305.515V73.7645L325.804 100.058L345.848 73.7645V105.002H361.248V50.6172H345.848L325.804 77.1355Z" fill="#EC1C24"/>
<path d="M434.583 130.846C432.383 130.846 429.938 131.071 428.227 131.745V145.004C428.227 147.027 431.161 148.15 434.583 148.15C439.961 148.15 441.672 146.352 441.672 139.61C441.916 132.194 440.205 130.846 434.583 130.846ZM434.583 150.622C431.161 150.622 429.449 149.723 428.227 148.824V158.038H425.294V129.947C427.738 128.823 431.894 128.374 434.583 128.374C441.672 128.374 445.094 130.846 445.094 139.386C445.094 147.925 441.916 150.622 434.583 150.622ZM416.005 128.823H418.938V149.049C416.249 150.173 412.338 150.622 409.649 150.622C403.049 150.622 400.605 148.375 400.605 140.734V128.823H403.538V140.285C403.538 146.802 405.005 148.15 410.138 148.15C412.338 148.15 414.294 147.925 416.005 147.476V128.823ZM383.983 130.846C389.361 130.846 391.316 132.194 391.316 139.61C391.316 146.577 389.605 148.375 383.983 148.375C378.605 148.375 376.894 146.577 376.894 139.61C376.894 132.194 378.605 130.846 383.983 130.846ZM383.983 150.622C391.316 150.622 394.494 147.925 394.494 139.386C394.494 130.621 391.072 128.374 383.983 128.374C376.894 128.374 373.472 130.846 373.472 139.386C373.716 147.925 376.894 150.622 383.983 150.622ZM368.094 128.149C364.672 128.149 362.472 129.273 361.494 130.396V128.823H358.561V150.173H361.494V133.992C361.494 131.97 364.427 131.295 368.094 131.295C369.072 131.295 369.805 131.295 370.538 131.52V128.823C369.561 128.374 368.827 128.149 368.094 128.149ZM342.672 130.846C344.872 130.846 347.316 131.071 349.027 131.745V145.004C349.027 147.027 346.094 148.15 342.672 148.15C337.294 148.15 335.583 146.352 335.583 139.61C335.583 132.194 337.294 130.846 342.672 130.846ZM351.961 129.947C349.516 128.823 345.361 128.374 342.672 128.374C335.583 128.374 332.161 130.846 332.161 139.386C332.161 148.15 335.583 150.622 342.672 150.622C346.094 150.622 347.805 149.723 349.027 148.824C349.027 154.443 346.094 156.016 340.472 156.016C338.761 156.016 335.583 155.566 333.872 154.892L332.894 157.589C334.605 158.263 338.272 158.713 340.227 158.713C347.316 158.713 351.716 156.465 351.716 148.6L351.961 129.947ZM311.627 131.97L312.605 129.273C309.916 128.599 307.227 128.149 305.027 128.149C298.916 128.149 295.983 129.722 295.983 134.666C295.983 138.712 298.916 140.06 304.538 140.285C308.938 140.509 310.161 141.633 310.161 143.88C310.161 147.251 308.205 147.926 304.538 147.926C302.094 147.926 298.672 147.251 297.205 146.802L296.227 149.274C298.672 149.948 302.338 150.398 304.538 150.398C310.649 150.398 313.583 148.824 313.583 143.656C313.583 139.61 310.894 137.813 305.027 137.588C300.872 137.363 299.161 136.464 299.161 134.217C299.161 130.846 301.116 130.396 305.027 130.396C307.227 130.846 309.672 131.295 311.627 131.97ZM281.805 130.846C286.205 130.846 287.672 131.97 287.916 137.363H274.716C274.961 132.194 276.672 130.846 281.805 130.846ZM281.805 128.149C274.961 128.149 271.538 130.846 271.538 139.161C271.538 147.926 275.449 150.398 282.294 150.398C284.249 150.398 287.427 149.948 289.872 149.274L289.138 146.802C287.183 147.476 284.249 147.926 282.538 147.926C277.161 147.926 274.716 146.352 274.716 139.61H291.338C291.094 130.621 288.161 128.149 281.805 128.149ZM263.961 120.733C262.494 120.733 262.005 120.958 262.005 122.306C262.005 123.879 262.494 124.104 263.961 124.104C265.427 124.104 265.916 123.879 265.916 122.306C265.916 120.958 265.427 120.733 263.961 120.733ZM265.427 150.173H262.494V128.823H265.427V150.173ZM246.605 130.846C248.805 130.846 251.249 131.071 252.961 131.745V145.004C252.961 147.027 250.027 148.15 246.605 148.15C241.227 148.15 239.516 146.352 239.516 139.61C239.516 132.194 241.227 130.846 246.605 130.846ZM256.138 129.947C253.694 128.823 249.538 128.374 246.849 128.374C239.761 128.374 236.338 130.846 236.338 139.386C236.338 148.15 239.761 150.622 246.849 150.622C250.272 150.622 251.983 149.723 253.205 148.824C253.205 154.443 250.272 156.016 244.649 156.016C242.938 156.016 239.761 155.566 238.049 154.892L237.072 157.364C238.783 158.038 242.449 158.488 244.649 158.488C251.738 158.488 256.138 156.241 256.138 148.375V129.947ZM220.449 130.846C225.827 130.846 227.783 132.194 227.783 139.61C227.783 146.577 226.072 148.375 220.449 148.375C215.072 148.375 213.361 146.577 213.361 139.61C213.361 132.194 215.072 130.846 220.449 130.846ZM220.449 150.622C227.783 150.622 230.961 147.925 230.961 139.386C230.961 130.621 227.538 128.374 220.449 128.374C213.361 128.149 209.938 130.621 209.938 139.386C209.938 147.925 213.361 150.622 220.449 150.622ZM204.072 119.609H201.138V144.779C201.138 147.926 202.116 149.274 204.072 150.847L206.516 149.049C204.805 147.476 204.316 146.577 204.316 144.555L204.072 119.609ZM184.761 130.846C190.138 130.846 192.094 132.194 192.094 139.61C192.094 146.577 190.383 148.375 184.761 148.375C179.383 148.375 177.672 146.577 177.672 139.61C177.427 132.194 179.138 130.846 184.761 130.846ZM184.761 150.622C192.094 150.622 195.272 147.925 195.272 139.386C195.272 130.621 191.849 128.374 184.761 128.374C177.672 128.374 174.249 130.846 174.249 139.386C174.249 147.925 177.427 150.622 184.761 150.622ZM152.983 131.52C154.694 131.071 156.649 130.846 158.849 130.846C163.983 130.846 165.449 132.194 165.449 138.712V150.173H168.383V138.262C168.383 130.621 165.938 128.374 159.338 128.374C156.649 128.374 152.494 129.048 150.049 129.947V150.173H152.983V131.52ZM134.894 128.149C131.961 128.149 129.272 129.048 128.294 129.947V119.609H125.361V149.948H128.294V133.767C128.294 131.745 131.472 130.846 134.649 130.846C139.294 130.846 140.761 132.194 140.761 138.712V150.173H143.694V138.262C143.449 130.396 141.005 128.149 134.894 128.149ZM119.738 147.027C118.027 147.701 116.072 148.15 114.116 148.15C108.738 148.15 106.294 146.352 106.294 139.61C106.294 132.419 108.738 131.071 114.116 131.071C116.072 131.071 118.027 131.295 119.738 131.97L120.716 129.498C119.005 128.823 116.072 128.374 114.116 128.374C107.027 128.374 102.872 130.846 102.872 139.386C102.872 148.15 106.783 150.622 114.116 150.622C116.072 150.622 119.005 150.173 120.716 149.499L119.738 147.027ZM88.4495 130.846C92.8495 130.846 94.3161 131.97 94.5606 137.363H81.3606C81.8495 132.194 83.5606 130.846 88.4495 130.846ZM88.4495 128.149C81.605 128.149 77.9384 131.071 77.9384 139.386C77.9384 148.15 81.8495 150.622 88.6939 150.622C90.6495 150.622 93.8273 150.173 96.2717 149.499L95.5384 147.027C93.5828 147.701 90.6495 148.15 88.9384 148.15C83.5606 148.15 81.1161 146.577 81.1161 139.835H97.7384C97.9828 130.621 95.0495 128.149 88.4495 128.149ZM65.4717 142.981C65.4717 146.577 66.4495 148.15 69.8717 148.15C71.5828 148.15 73.0495 147.925 74.2717 147.476L75.005 149.948C73.5384 150.398 71.5828 150.622 69.8717 150.622C64.4939 150.622 62.5384 149.274 62.5384 142.981V131.295H58.3828V128.823H62.5384V124.329L65.4717 123.205V128.823H74.0273V131.295H65.4717V142.981Z" fill="#0F2232"/>
</svg>
