<svg width="93" height="359" viewBox="0 0 93 359" fill="none" xmlns="http://www.w3.org/2000/svg">
<path d="M40.5385 5.00962C40.5385 5.00962 40.8551 98.0666 47.5607 132.004C53.6817 162.983 51.0278 140.846 56.6243 172.573C59.5151 188.961 58.1367 199.507 55.0793 206.29C50.0499 217.448 37.6604 229.132 38.1485 241.361V241.361L39.0624 264.251L40.5385 354" stroke="#5E8D4F" stroke-width="9" stroke-linecap="round"/>
<path d="M32.9801 235.353C9.52671 238.978 7.12868 218.955 8.86133 208.49C31.9843 210.4 39.368 214.97 32.9801 235.353Z" fill="#3C652F" stroke="#3C652F" stroke-width="3"/>
<path d="M32.1049 236.42L28.2735 231.713M10.3937 209.745L16.7794 217.591M16.7794 217.591L11.5018 217.781M16.7794 217.591L19.9175 212.19M16.7794 217.591L23.4204 225.75M23.4204 225.75L15.1239 224.309M23.4204 225.75L26.1602 215.515M23.4204 225.75L28.2735 231.713M28.2735 231.713L33.0634 221.163M28.2735 231.713L19.5131 231.465" stroke="#2A501E" stroke-width="0.8"/>
<path d="M58.7405 171.512C54.3099 148.197 74.2385 145.111 84.7565 146.482C83.6443 169.657 79.3308 177.194 58.7405 171.512Z" fill="#3C652F" stroke="#3C652F" stroke-width="3"/>
<path d="M57.6428 170.676L62.2155 166.684M83.5545 148.059L75.9334 154.711M75.9334 154.711L75.5615 149.443M75.9334 154.711L81.4388 157.661M75.9334 154.711L68.0075 161.629M68.0075 161.629L69.1619 153.288M68.0075 161.629L78.3305 164.015M68.0075 161.629L62.2155 166.684M62.2155 166.684L72.9236 171.108M62.2155 166.684L62.1616 157.921" stroke="#2A501E" stroke-width="0.8"/>
<path d="M42.7405 296.512C38.3099 273.197 58.2385 270.111 68.7565 271.482C67.6443 294.657 63.3308 302.194 42.7405 296.512Z" fill="#3C652F" stroke="#3C652F" stroke-width="3"/>
<path d="M41.6428 295.676L46.2155 291.684M67.5545 273.059L59.9334 279.711M59.9334 279.711L59.5615 274.443M59.9334 279.711L65.4388 282.661M59.9334 279.711L52.0075 286.629M52.0075 286.629L53.1619 278.288M52.0075 286.629L62.3305 289.015M52.0075 286.629L46.2155 291.684M46.2155 291.684L56.9236 296.108M46.2155 291.684L46.1616 282.921" stroke="#2A501E" stroke-width="0.8"/>
</svg>
