<svg width="127" height="359" viewBox="0 0 127 359" fill="none" xmlns="http://www.w3.org/2000/svg">
<path d="M65.514 5.07159C65.514 5.07159 55.2585 100.866 57.5449 162.306C58.482 187.488 62.1034 222.416 64.1883 241.076C65.1563 249.74 65.6491 258.429 65.5677 267.146L64.76 353.695" stroke="#5E8D4F" stroke-width="9" stroke-linecap="round"/>
<path d="M125.101 226.006L62.6768 292.008C71.3417 289.251 83.2191 285.793 98.5205 270.963C113.822 256.133 121.03 237.052 125.101 226.006Z" fill="#3C652F"/>
<path d="M89.8311 247.045C74.5297 261.875 67.3218 280.956 63.2505 292.002L96.5285 262.348L125.675 226C117.01 228.757 105.132 232.214 89.8311 247.045Z" fill="#3C652F"/>
<path d="M125.515 226.168C112.996 235.023 83.5243 259.915 63.887 291.329" stroke="#2A501E" stroke-width="2" stroke-linecap="round"/>
<path d="M124.101 141.006L61.6768 207.008C70.3417 204.251 82.2191 200.793 97.5205 185.963C112.822 171.133 120.03 152.052 124.101 141.006Z" fill="#3C652F"/>
<path d="M88.8311 162.045C73.5297 176.875 66.3218 195.956 62.2505 207.002L95.5285 177.348L124.675 141C116.01 143.757 104.132 147.214 88.8311 162.045Z" fill="#3C652F"/>
<path d="M124.515 141.168C111.996 150.023 82.5243 174.915 62.887 206.329" stroke="#2A501E" stroke-width="2" stroke-linecap="round"/>
<path d="M9.07649 179.239L66.551 249.594C64.9248 240.647 63.0151 228.425 50.2642 211.353C37.5133 194.28 19.5109 184.69 9.07649 179.239Z" fill="#3C652F"/>
<path d="M25.4311 216.912C38.182 233.985 56.1844 243.575 66.6188 249.026L41.4658 212.228L9.14431 178.671C10.7705 187.617 12.6802 199.839 25.4311 216.912Z" fill="#3C652F"/>
<path d="M9.29038 178.851C16.471 192.4 37.3878 224.814 66.0318 248.308" stroke="#2A501E" stroke-width="2" stroke-linecap="round"/>
<path d="M8.07649 273.239L65.551 343.594C63.9248 334.647 62.0151 322.425 49.2642 305.353C36.5133 288.28 18.5109 278.69 8.07649 273.239Z" fill="#3C652F"/>
<path d="M24.4311 310.912C37.182 327.985 55.1844 337.575 65.6188 343.026L40.4658 306.228L8.14431 272.671C9.77052 281.617 11.6802 293.839 24.4311 310.912Z" fill="#3C652F"/>
<path d="M8.29038 272.851C15.471 286.4 36.3878 318.814 65.0318 342.308" stroke="#2A501E" stroke-width="2" stroke-linecap="round"/>
</svg>
