<svg width="181" height="357" viewBox="0 0 181 357" fill="none" xmlns="http://www.w3.org/2000/svg">
<path d="M83.7451 5.12247C83.7451 5.12247 88.7146 28.7224 81.3605 71.7875C76.7606 98.7237 73.7024 126.123 75.1176 153.413C76.3129 176.464 77.8019 202.808 84.5167 239.813C95.4414 300.019 83.7449 326.497 83.7449 326.497" stroke="#5E8D4F" stroke-width="9" stroke-linecap="round"/>
<path d="M1 260L98 357C94.0408 343.638 89.0918 325.327 67.3163 301.571C45.5408 277.816 17.3316 266.434 1 260Z" fill="#3C652F"/>
<path d="M31.6837 314.551C53.4592 338.306 81.6684 349.688 98 356.122L54.5 304.5L0.999992 259.122C4.95918 272.484 9.90816 290.796 31.6837 314.551Z" fill="#3C652F"/>
<path d="M1.24609 259.369C14.1959 278.753 50.6864 324.448 97.0089 355.132" stroke="#2A501E" stroke-width="2" stroke-linecap="round"/>
<path d="M178.995 135.009L83.0046 233.008C96.3251 228.911 114.584 223.773 138.112 201.752C161.641 179.732 172.731 151.406 178.995 135.009Z" fill="#3C652F"/>
<path d="M124.766 166.256C101.238 188.277 90.1483 216.602 83.8841 233L135.053 188.967L179.874 135C166.554 139.098 148.295 144.236 124.766 166.256Z" fill="#3C652F"/>
<path d="M179.629 135.25C160.38 148.4 115.065 185.362 84.8629 232" stroke="#2A501E" stroke-width="2" stroke-linecap="round"/>
</svg>
