<svg width="138" height="359" viewBox="0 0 138 359" fill="none" xmlns="http://www.w3.org/2000/svg">
<path d="M59.7451 5.12247C59.7451 5.12247 65.1483 33.0814 56.2149 83.8982C51.8435 108.764 49.4588 134.08 50.6569 159.299C51.9218 185.926 53.0038 215.941 60.2844 259.695C71.1497 324.991 59.4269 353.724 59.4269 353.724" stroke="#5E8D4F" stroke-width="9" stroke-linecap="round"/>
<path d="M82.0536 139.337C54.4141 141.557 47.9289 152.566 51.9001 188.767C97.0637 201.189 101.596 188.392 111.925 167.707C111.925 167.707 125.724 119.698 117.523 126.892C109.322 134.086 82.0536 139.337 82.0536 139.337Z" fill="#3C652F" stroke="#3C652F" stroke-width="3"/>
<path d="M53.9537 185.88L66.8833 174.696M112.724 135.042L91.7349 153.199M91.7349 153.199L103.128 151.36M91.7349 153.199L93.6255 141.743M91.7349 153.199L79.8129 163.511M79.8129 163.511L98.9884 165.763M79.8129 163.511L81.3475 146.051M79.8129 163.511L66.8833 174.696M66.8833 174.696L92.8103 178.722M66.8833 174.696L67.7054 150.837" stroke="#2A501E" stroke-width="0.8"/>
<path d="M19.5897 310.749C27.2614 334.061 37.0149 338.427 63.609 331.233C63.2448 291.45 52.5587 288.936 34.6339 282.314C34.6339 282.314 -4.76438 275.613 2.46804 281.842C9.70046 288.071 19.5897 310.749 19.5897 310.749Z" fill="#3C652F" stroke="#3C652F" stroke-width="3"/>
<path d="M60.976 329.787L49.6932 319.95M9.69027 285.071L28.0066 301.041M28.0066 301.041L24.1439 291.529M28.0066 301.041L18.9096 300.637M28.0066 301.041L38.4103 310.112M38.4103 310.112L35.9634 293.539M38.4103 310.112L24.8363 310.643M38.4103 310.112L49.6932 319.95M49.6932 319.95L47.13 297.438M49.6932 319.95L31.4216 321.761" stroke="#2A501E" stroke-width="0.8"/>
</svg>
