<svg width="112" height="357" viewBox="0 0 112 357" fill="none" xmlns="http://www.w3.org/2000/svg">
<path d="M63.7451 5.12247C63.7451 5.12247 69.1277 32.849 60.2733 83.2526C55.8868 108.223 53.4732 133.641 54.68 158.966C55.9397 185.399 57.0439 215.219 64.2971 258.61C75.1656 323.628 63.4442 352.237 63.4442 352.237" stroke="#5E8D4F" stroke-width="9" stroke-linecap="round"/>
<path d="M55.8107 160.956C46.7742 121.112 80.5257 112.281 98.531 112.846C98.1164 153.407 91.2496 167.283 55.8107 160.956Z" fill="#3C652F" stroke="#3C652F" stroke-width="3"/>
<path d="M53.892 159.691L61.4267 151.946M96.5885 115.802L84.0307 128.71M84.0307 128.71L83.0607 119.599M84.0307 128.71L93.5978 132.895M84.0307 128.71L70.9706 142.135M70.9706 142.135L72.4044 127.406M70.9706 142.135L88.7085 144.501M70.9706 142.135L61.4267 151.946M61.4267 151.946L79.9508 157.795M61.4267 151.946L60.7751 136.689" stroke="#2A501E" stroke-width="0.8"/>
<path d="M70.8132 302.536C20.5957 310.256 15.2723 267.396 18.8878 245.001C68.4487 249.126 84.3111 258.921 70.8132 302.536Z" fill="#3C652F" stroke="#3C652F" stroke-width="3"/>
<path d="M68.9523 304.818L60.6996 294.736M22.1871 247.687L35.9416 264.49M35.9416 264.49L24.6356 264.889M35.9416 264.49L42.6153 252.936M35.9416 264.49L50.2462 281.966M50.2462 281.966L32.4568 278.868M50.2462 281.966L56.0216 260.064M50.2462 281.966L60.6996 294.736M60.6996 294.736L70.8646 272.164M60.6996 294.736L41.9272 294.191" stroke="#2A501E" stroke-width="0.8"/>
</svg>
