<svg width="86" height="363" viewBox="0 0 86 363" fill="none" xmlns="http://www.w3.org/2000/svg">
<path d="M40.3371 5.17147C40.3371 5.17147 35.7713 104.13 45.365 129.706V129.706C56.6593 159.816 27.4425 193.531 33.5676 225.1L37.3569 244.631C38.9474 252.828 39.7071 261.165 39.6243 269.515L38.7502 357.722" stroke="#5E8D4F" stroke-width="9" stroke-linecap="round"/>
<path d="M53.3394 217.593C37.612 221.901 34.1055 227.88 37.0047 244.563C62.9846 245.126 65.3459 238.53 70.8759 227.514C70.8759 227.514 77.9063 203.144 73.3542 207.519C68.8022 211.893 53.3394 217.593 53.3394 217.593Z" fill="#3C652F" stroke="#3C652F" stroke-width="3"/>
<path d="M38.1241 242.952L45.3036 236.131M70.7581 211.945L59.1031 223.019M59.1031 223.019L65.5698 220.805M59.1031 223.019L59.9809 217.369M59.1031 223.019L52.4831 229.309M52.4831 229.309L63.4607 228.116M52.4831 229.309L53.0527 220.856M52.4831 229.309L45.3036 236.131M45.3036 236.131L60.1635 234.984M45.3036 236.131L45.3547 224.731" stroke="#2A501E" stroke-width="0.8"/>
<path d="M12.9917 280.566C16.1929 294.7 21.8032 297.719 38.2641 294.651C40.4694 271.099 34.1844 269.134 23.7886 264.416C23.7886 264.416 0.46019 258.692 4.43796 262.7C8.41573 266.708 12.9917 280.566 12.9917 280.566Z" fill="#3C652F" stroke="#3C652F" stroke-width="3"/>
<path d="M36.7651 293.677L30.5669 287.354M8.59153 264.933L18.6535 275.199M18.6535 275.199L16.906 269.399M18.6535 275.199L13.1974 274.553M18.6535 275.199L24.3687 281.03M24.3687 281.03L23.9045 271.116M24.3687 281.03L16.1583 280.738M24.3687 281.03L30.5669 287.354M30.5669 287.354L30.3946 273.922M30.5669 287.354L19.4482 287.609" stroke="#2A501E" stroke-width="0.8"/>
<path d="M11.0688 167.36C14.3274 181.481 19.9499 184.477 36.3983 181.342C38.5079 157.781 32.215 155.842 21.8001 151.166C21.8001 151.166 -1.55138 145.537 2.44264 149.529C6.43665 153.521 11.0688 167.36 11.0688 167.36Z" fill="#3C652F" stroke="#3C652F" stroke-width="3"/>
<path d="M34.895 180.375L28.6712 174.077M6.60493 151.746L16.7085 161.97M16.7085 161.97L14.9375 156.178M16.7085 161.97L11.2498 161.347M16.7085 161.97L22.4474 167.778M22.4474 167.778L21.9429 157.866M22.4474 167.778L14.2358 167.519M22.4474 167.778L28.6712 174.077M28.6712 174.077L28.4444 160.645M28.6712 174.077L17.5536 174.377" stroke="#2A501E" stroke-width="0.8"/>
</svg>
