<svg width="117" height="361" viewBox="0 0 117 361" fill="none" xmlns="http://www.w3.org/2000/svg">
<path d="M54.998 5.31876C56.0812 47.4599 51.705 165.72 60.3372 188.047C68.9694 210.375 57.2352 228.6 47.5472 248.493C47.3468 248.904 47.1382 249.318 46.9221 249.734C36.2917 270.194 28.3193 292.958 34.5566 315.155V315.155C35.9689 320.181 36.7697 325.36 36.9415 330.578L37.7835 356.152" stroke="#5E8D4F" stroke-width="9" stroke-linecap="round"/>
<path d="M37.0189 216.069C51.9453 227.545 53.5887 235.164 44.9711 250.671C17.7363 239.458 17.4922 231.736 15.4331 218.12C15.4331 218.12 16.2941 190.36 19.5646 196.835C22.8351 203.31 37.0189 216.069 37.0189 216.069Z" fill="#3C652F" stroke="#3C652F" stroke-width="3"/>
<path d="M44.3423 248.54L39.1581 238.405M20.7776 202.475L29.1936 218.927M29.1936 218.927L23.2046 213.763M29.1936 218.927L30.1761 212.832M29.1936 218.927L33.9738 228.271M33.9738 228.271L22.9463 222.091M33.9738 228.271L36.2179 219.49M33.9738 228.271L39.1581 238.405M39.1581 238.405L24.0736 230.51M39.1581 238.405L42.9311 226.888" stroke="#2A501E" stroke-width="0.8"/>
<path d="M78.9069 168.399C63.2902 173.15 60.106 179.416 64.0214 196.674C90.2741 196.795 92.2658 189.909 97.1933 178.38C97.1933 178.38 102.843 152.968 98.5085 157.588C94.174 162.208 78.9069 168.399 78.9069 168.399Z" fill="#3C652F" stroke="#3C652F" stroke-width="3"/>
<path d="M65.0584 194.985L71.8994 187.779M96.1539 162.229L85.0484 173.928M85.0484 173.928L91.4433 171.516M85.0484 173.928L85.5992 168.05M85.0484 173.928L78.7404 180.573M78.7404 180.573L89.7484 179.139M78.7404 180.573L78.814 171.792M78.7404 180.573L71.8994 187.779M71.8994 187.779L86.8282 186.324M71.8994 187.779L71.2749 175.95" stroke="#2A501E" stroke-width="0.8"/>
<path d="M114.853 280.939L35.4841 350.866C45.8746 348.544 60.0859 345.731 79.4089 330.144C98.7319 314.558 109.017 293.272 114.853 280.939Z" fill="#3C652F"/>
<path d="M71.595 301.711C52.272 317.297 41.9865 338.584 36.1506 350.916L77.9207 320.016L115.52 280.989C105.129 283.312 90.918 286.125 71.595 301.711Z" fill="#3C652F"/>
<path d="M115.315 281.168C99.8259 290.14 62.9676 315.926 36.9579 350.203" stroke="#2A501E" stroke-width="2" stroke-linecap="round"/>
</svg>
