<svg width="55" height="55" viewBox="0 0 55 55" fill="none" xmlns="http://www.w3.org/2000/svg">
<path fill-rule="evenodd" clip-rule="evenodd" d="M27.4987 34.6663C31.4567 34.6663 34.6654 31.4577 34.6654 27.4997C34.6654 23.5416 31.4567 20.333 27.4987 20.333C23.5407 20.333 20.332 23.5416 20.332 27.4997C20.332 31.4577 23.5407 34.6663 27.4987 34.6663ZM27.4987 36.6663C32.5613 36.6663 36.6654 32.5623 36.6654 27.4997C36.6654 22.4371 32.5613 18.333 27.4987 18.333C22.4361 18.333 18.332 22.4371 18.332 27.4997C18.332 32.5623 22.4361 36.6663 27.4987 36.6663Z" fill="#0F2232"/>
<path fill-rule="evenodd" clip-rule="evenodd" d="M15.5848 19.6518C12.2018 22.3413 9.65712 25.4364 8.45453 27.0238C8.3583 27.1508 8.28473 27.248 8.22347 27.3335C8.16876 27.4097 8.13445 27.4621 8.11218 27.5C8.13445 27.5379 8.16876 27.5903 8.22347 27.6665C8.28473 27.752 8.3583 27.8492 8.45453 27.9762C9.65711 29.5636 12.2018 32.6587 15.5848 35.3482C18.9821 38.0491 23.1102 40.25 27.4992 40.25C31.8881 40.25 36.0162 38.0491 39.4135 35.3482C42.7965 32.6587 45.3412 29.5636 46.5438 27.9762C46.64 27.8492 46.7136 27.752 46.7748 27.6665C46.8296 27.5903 46.8639 27.5379 46.8861 27.5C46.8639 27.4621 46.8296 27.4097 46.7748 27.3335C46.7136 27.248 46.64 27.1508 46.5438 27.0238C45.3412 25.4364 42.7965 22.3413 39.4135 19.6518C36.0162 16.9509 31.8881 14.75 27.4992 14.75C23.1102 14.75 18.9821 16.9509 15.5848 19.6518ZM14.3402 18.0862C17.8917 15.2628 22.4561 12.75 27.4992 12.75C32.5422 12.75 37.1067 15.2628 40.6581 18.0863C44.2239 20.9211 46.884 24.1609 48.138 25.8161C48.1618 25.8475 48.1867 25.8799 48.2123 25.9133C48.5095 26.3001 48.9046 26.8143 48.9046 27.5C48.9046 28.1857 48.5095 28.6999 48.2123 29.0867C48.1867 29.1201 48.1618 29.1525 48.138 29.184C46.884 30.8391 44.2239 34.0789 40.6581 36.9138C37.1067 39.7372 32.5422 42.25 27.4992 42.25C22.4561 42.25 17.8917 39.7372 14.3402 36.9137C10.7744 34.0789 8.11429 30.8391 6.86036 29.1839C6.83651 29.1525 6.81162 29.1201 6.786 29.0867C6.48882 28.6999 6.09375 28.1857 6.09375 27.5C6.09375 26.8143 6.48882 26.3001 6.78601 25.9133C6.81162 25.8799 6.83652 25.8475 6.86036 25.816C8.1143 24.1609 10.7745 20.9211 14.3402 18.0862Z" fill="#0F2232"/>
</svg>
