<svg width="95" height="100" viewBox="0 0 95 100" fill="none" xmlns="http://www.w3.org/2000/svg">
<rect x="0.5" y="0.5" width="94" height="99" fill="#E9ECEE" stroke="#0F2232"/>
<path fill-rule="evenodd" clip-rule="evenodd" d="M29.0078 34C29.0078 31.7909 30.7088 30 32.807 30H63.2008C65.299 30 67 31.7909 67 34V66C67 68.2091 65.299 70 63.2008 70H32.807C30.7088 70 29.0078 68.2091 29.0078 66V46.2162C28.9974 46.095 28.9974 45.9732 29.0078 45.8524V34ZM32.807 51.401V66H63.2008V60.0005C62.9136 60.0007 62.622 59.9321 62.3479 59.7871L55.541 56.1863L44.4163 61.2355C42.8963 61.9255 41.1269 61.4998 40.0423 60.1833L32.807 51.401ZM63.2008 55.7618L57.2467 52.6121C56.2432 52.0812 55.0682 52.045 54.0369 52.5131L42.9123 57.5623L32.807 45.2964V34H63.2008V55.7618ZM54.984 46.0001C56.2475 46.0001 57.2717 44.9217 57.2717 43.5915C57.2717 42.2612 56.2475 41.1829 54.984 41.1829C53.7205 41.1829 52.6963 42.2612 52.6963 43.5915C52.6963 44.9217 53.7205 46.0001 54.984 46.0001ZM54.984 50.0001C58.3457 50.0001 61.0709 47.1308 61.0709 43.5915C61.0709 40.0521 58.3457 37.1829 54.984 37.1829C51.6223 37.1829 48.8971 40.0521 48.8971 43.5915C48.8971 47.1308 51.6223 50.0001 54.984 50.0001Z" fill="#0F2232"/>
</svg>
