<svg width="300" height="303" viewBox="0 0 300 303" fill="none" xmlns="http://www.w3.org/2000/svg">
<path d="M144.432 172.98C112.107 101.228 160.214 58.8312 188.308 46.6016C206.354 126.77 202.132 159.179 144.432 172.98Z" fill="#5E8D4F" stroke="#5E8D4F" stroke-width="3"/>
<path d="M170.362 171.003C97.4621 188.895 63.5675 131.064 55.7327 99.9117C134.715 98.3143 165.071 109.391 170.362 171.003Z" fill="#5E8D4F" stroke="#5E8D4F" stroke-width="3"/>
<path d="M163.337 128.356C170.343 206.301 110.481 228.609 79.6735 230.019C89.0543 149.317 103.815 120.763 163.337 128.356Z" fill="#5E8D4F" stroke="#5E8D4F" stroke-width="3"/>
<path d="M136.009 129.233C208.582 153.844 208.713 220.335 199.707 250.504C130.116 209.038 109.31 183.372 136.009 129.233Z" fill="#5E8D4F" stroke="#5E8D4F" stroke-width="3"/>
<path d="M135.727 182.957C161.399 110.555 225.71 117.023 254.656 129.308C212.759 196.96 187.4 215.869 135.727 182.957Z" fill="#5E8D4F" stroke="#5E8D4F" stroke-width="3"/>
<path d="M117.636 177.247C96.4517 196.483 118.454 223.336 96.0611 243.195C108.781 258.016 142.516 250.153 163.7 230.916C184.884 211.68 180.264 188.692 161.663 185.017C160.282 165.411 138.82 158.011 117.636 177.247Z" fill="#FF7800"/>
<path d="M117.636 177.247C96.4517 196.483 118.454 223.336 96.0611 243.195C108.781 258.016 142.516 250.153 163.7 230.916C184.884 211.68 180.264 188.692 161.663 185.017C160.282 165.411 138.82 158.011 117.636 177.247Z" fill="#FF7800"/>
<path d="M117.636 177.247C96.4517 196.483 118.454 223.336 96.0611 243.195C108.781 258.016 142.516 250.153 163.7 230.916C184.884 211.68 180.264 188.692 161.663 185.017C160.282 165.411 138.82 158.011 117.636 177.247Z" fill="#FF7800"/>
<path d="M116.171 124.282C89.3944 112.493 75.767 145.719 47.8823 133.043C40.6269 151.937 63.1203 180.912 89.8971 192.702C116.674 204.492 134.886 189.742 129.572 170.177C146.284 160.063 142.948 136.072 116.171 124.282Z" fill="#FF7800"/>
<path d="M116.171 124.282C89.3944 112.493 75.767 145.719 47.8823 133.043C40.6269 151.937 63.1203 180.912 89.8971 192.702C116.674 204.492 134.886 189.742 129.572 170.177C146.284 160.063 142.948 136.072 116.171 124.282Z" fill="#FF7800"/>
<path d="M116.171 124.282C89.3944 112.493 75.767 145.719 47.8823 133.043C40.6269 151.937 63.1203 180.912 89.8971 192.702C116.674 204.492 134.886 189.742 129.572 170.177C146.284 160.063 142.948 136.072 116.171 124.282Z" fill="#FF7800"/>
<path d="M173.604 110.876C173.277 81.208 137.328 79.4175 137.35 48.3871C117.113 47.8421 99.991 79.2345 100.319 108.902C100.646 138.57 121.638 151.024 137.286 139.292C153.428 151.881 173.932 140.544 173.604 110.876Z" fill="#FF7800"/>
<path d="M173.604 110.876C173.277 81.208 137.328 79.4175 137.35 48.3871C117.113 47.8421 99.991 79.2345 100.319 108.902C100.646 138.57 121.638 151.024 137.286 139.292C153.428 151.881 173.932 140.544 173.604 110.876Z" fill="#FF7800"/>
<path d="M173.604 110.876C173.277 81.208 137.328 79.4175 137.35 48.3871C117.113 47.8421 99.991 79.2345 100.319 108.902C100.646 138.57 121.638 151.024 137.286 139.292C153.428 151.881 173.932 140.544 173.604 110.876Z" fill="#FF7800"/>
<path d="M210.828 156.1C233.964 139.386 213.303 108.24 237.725 91.0638C225.73 73.7868 190.525 76.8199 167.389 93.534C144.253 110.248 147.344 134.758 166.179 141.382C166.187 161.898 187.692 172.814 210.828 156.1Z" fill="#FF7800"/>
<path d="M210.828 156.1C233.964 139.386 213.303 108.24 237.725 91.0638C225.73 73.7868 190.525 76.8199 167.389 93.534C144.253 110.248 147.344 134.758 166.179 141.382C166.187 161.898 187.692 172.814 210.828 156.1Z" fill="#FF7800"/>
<path d="M210.828 156.1C233.964 139.386 213.303 108.24 237.725 91.0638C225.73 73.7868 190.525 76.8199 167.389 93.534C144.253 110.248 147.344 134.758 166.179 141.382C166.187 161.898 187.692 172.814 210.828 156.1Z" fill="#FF7800"/>
<path d="M172.138 204.455C193.08 225.562 218.292 200.074 239.953 222.422C253.823 207.74 243.307 172.395 222.365 151.288C201.423 130.181 178.731 136.854 176.497 156.953C156.943 159.917 151.196 183.348 172.138 204.455Z" fill="#FF7800"/>
<path d="M172.138 204.455C193.08 225.562 218.292 200.074 239.953 222.422C253.823 207.74 243.307 172.395 222.365 151.288C201.423 130.181 178.731 136.854 176.497 156.953C156.943 159.917 151.196 183.348 172.138 204.455Z" fill="#FF7800"/>
<path d="M172.138 204.455C193.08 225.562 218.292 200.074 239.953 222.422C253.823 207.74 243.307 172.395 222.365 151.288C201.423 130.181 178.731 136.854 176.497 156.953C156.943 159.917 151.196 183.348 172.138 204.455Z" fill="#FF7800"/>
<path d="M117.828 177.565C101.824 196.221 124.67 218.254 107.689 237.554C120.803 249.669 149.314 240.094 165.318 221.438C181.321 202.782 174.219 182.816 157.434 181.012C153.619 163.784 133.832 158.909 117.828 177.565Z" fill="#FF9A40"/>
<path d="M114.024 125.152C88.7742 118.411 81.1569 150.037 54.8093 142.662C50.9143 160.576 74.6692 183.283 99.9189 190.023C125.169 196.764 139.305 181 131.996 164.268C145.424 152.86 139.274 131.892 114.024 125.152Z" fill="#FF9A40"/>
<path d="M170.949 109.516C169.039 83.8393 136.395 84.4548 134.727 57.577C116.376 58.3246 102.581 86.5463 104.491 112.223C106.401 137.899 126.084 147.422 139.613 136.317C154.912 146.248 172.858 135.192 170.949 109.516Z" fill="#FF9A40"/>
<path d="M208.34 149.427C228.85 133.591 210.616 107.687 232.265 91.3771C221.677 77.0377 190.508 81.6638 169.998 97.4994C149.487 113.335 152.18 134.464 168.842 139.157C168.812 156.99 187.83 165.262 208.34 149.427Z" fill="#FF9A40"/>
<path d="M171.475 198.812C191.316 215.252 211.31 190.291 231.871 207.749C242.82 193.437 230.966 163.424 211.126 146.984C191.285 130.544 172.046 138.707 171.637 156.604C154.846 161.188 151.635 182.372 171.475 198.812Z" fill="#FF9A40"/>
<path d="M116.833 124.325C94.6451 122.461 92.37 153.124 69.1728 150.863C68.2381 168.158 91.2605 185.092 113.448 186.956C135.636 188.819 145.493 171.738 137.13 157.487C146.962 144.57 139.02 126.188 116.833 124.325Z" fill="#FFB573"/>
<path d="M170.005 109.614C162.86 87.6416 134.274 95.5459 127.086 72.471C111.101 77.265 104.973 105.002 112.118 126.974C119.264 148.946 138.606 152.812 148.144 140.07C163.716 145.282 177.151 131.586 170.005 109.614Z" fill="#FFB573"/>
<path d="M205.329 153.827C220.263 136.562 198.294 114.82 214.146 96.9717C201.542 84.9982 174.62 93.2025 159.686 110.468C144.752 127.733 151.758 146.996 167.707 149.259C171.557 165.805 190.395 171.093 205.329 153.827Z" fill="#FFB573"/>
<path d="M166.822 193.388C186.917 206.391 202.942 180.969 223.81 194.836C232.52 180.318 220.478 156.568 200.383 143.564C180.288 130.561 161.234 137.562 162.677 154.213C147.552 160.368 146.727 180.384 166.822 193.388Z" fill="#FFB573"/>
<path d="M116.946 169.906C105.949 189.401 131.432 206.48 119.665 226.709C134.186 236.021 158.533 223.125 169.53 203.631C180.526 184.136 169.966 166.722 154.136 167.448C147.156 152.092 127.942 150.412 116.946 169.906Z" fill="#FFB573"/>
<ellipse cx="149.444" cy="153.158" rx="14.6144" ry="15.3464" transform="rotate(-24.4483 149.444 153.158)" fill="white"/>
</svg>
