<svg width="300" height="300" viewBox="0 0 300 300" fill="none" xmlns="http://www.w3.org/2000/svg">
<path d="M144.082 171.242C112.32 100.725 160.935 58.4509 189.214 46.1284C206.583 125.081 202.057 157.101 144.082 171.242Z" fill="#5E8D4F" stroke="#5E8D4F" stroke-width="3"/>
<path d="M170.09 169.056C96.8383 187.371 63.3771 130.605 55.803 99.9333C135.006 97.6439 165.341 108.301 170.09 169.056Z" fill="#5E8D4F" stroke="#5E8D4F" stroke-width="3"/>
<path d="M163.432 127.034C169.754 203.892 109.533 226.446 78.6328 228.116C88.7666 148.39 103.824 120.077 163.432 127.034Z" fill="#5E8D4F" stroke="#5E8D4F" stroke-width="3"/>
<path d="M136.025 128.146C208.566 151.778 208.096 217.394 198.794 247.249C129.396 206.955 108.767 181.815 136.025 128.146Z" fill="#5E8D4F" stroke="#5E8D4F" stroke-width="3"/>
<path d="M135.264 181.167C161.656 109.484 226.076 115.287 254.987 127.149C212.37 194.291 186.775 213.18 135.264 181.167Z" fill="#5E8D4F" stroke="#5E8D4F" stroke-width="3"/>
<path d="M117.178 175.694C95.7649 194.869 117.583 221.17 94.9516 240.97C107.571 255.481 141.465 247.417 162.878 228.242C184.291 209.067 179.866 186.423 161.25 182.964C160.042 163.628 138.591 156.519 117.178 175.694Z" fill="#FF7800"/>
<path d="M117.178 175.694C95.7649 194.869 117.583 221.17 94.9516 240.97C107.571 255.481 141.465 247.417 162.878 228.242C184.291 209.067 179.866 186.423 161.25 182.964C160.042 163.628 138.591 156.519 117.178 175.694Z" fill="#FF7800"/>
<path d="M117.178 175.694C95.7649 194.869 117.583 221.17 94.9516 240.97C107.571 255.481 141.465 247.417 162.878 228.242C184.291 209.067 179.866 186.423 161.25 182.964C160.042 163.628 138.591 156.519 117.178 175.694Z" fill="#E1004C"/>
<path d="M116.188 123.438C89.4481 112.045 75.4852 144.958 47.642 132.701C40.1971 151.411 62.4878 179.803 89.2281 191.196C115.968 202.589 134.362 187.869 129.21 168.609C146.057 158.477 142.929 134.832 116.188 123.438Z" fill="#FF7800"/>
<path d="M116.188 123.438C89.4481 112.045 75.4852 144.958 47.642 132.701C40.1971 151.411 62.4878 179.803 89.2281 191.196C115.968 202.589 134.362 187.869 129.21 168.609C146.057 158.477 142.929 134.832 116.188 123.438Z" fill="#FF7800"/>
<path d="M116.188 123.438C89.4481 112.045 75.4852 144.958 47.642 132.701C40.1971 151.411 62.4878 179.803 89.2281 191.196C115.968 202.589 134.362 187.869 129.21 168.609C146.057 158.477 142.929 134.832 116.188 123.438Z" fill="#E1004C"/>
<path d="M173.893 109.69C173.833 80.4148 137.807 78.9722 138.109 48.3493C117.823 47.9942 100.374 79.1287 100.434 108.404C100.495 137.679 121.429 149.78 137.224 138.061C153.295 150.338 173.954 138.965 173.893 109.69Z" fill="#FF7800"/>
<path d="M173.893 109.69C173.833 80.4148 137.807 78.9722 138.109 48.3493C117.823 47.9942 100.374 79.1287 100.434 108.404C100.495 137.679 121.429 149.78 137.224 138.061C153.295 150.338 173.954 138.965 173.893 109.69Z" fill="#FF7800"/>
<path d="M173.893 109.69C173.833 80.4148 137.807 78.9722 138.109 48.3493C117.823 47.9942 100.374 79.1287 100.434 108.404C100.495 137.679 121.429 149.78 137.224 138.061C153.295 150.338 173.954 138.965 173.893 109.69Z" fill="#E1004C"/>
<path d="M210.804 153.982C234.151 137.279 213.717 106.728 238.358 89.5577C226.487 72.6159 191.163 75.927 167.815 92.6304C144.468 109.334 147.346 133.493 166.17 139.86C165.993 160.107 187.456 170.685 210.804 153.982Z" fill="#FF7800"/>
<path d="M210.804 153.982C234.151 137.279 213.717 106.728 238.358 89.5577C226.487 72.6159 191.163 75.927 167.815 92.6304C144.468 109.334 147.346 133.493 166.17 139.86C165.993 160.107 187.456 170.685 210.804 153.982Z" fill="#FF7800"/>
<path d="M210.804 153.982C234.151 137.279 213.717 106.728 238.358 89.5577C226.487 72.6159 191.163 75.927 167.815 92.6304C144.468 109.334 147.346 133.493 166.17 139.86C165.993 160.107 187.456 170.685 210.804 153.982Z" fill="#E1004C"/>
<path d="M171.574 202.054C192.38 222.694 217.888 197.313 239.404 219.172C253.443 204.558 243.218 169.772 222.412 149.131C201.606 128.49 178.795 135.281 176.373 155.136C156.741 158.238 150.768 181.413 171.574 202.054Z" fill="#FF7800"/>
<path d="M171.574 202.054C192.38 222.694 217.888 197.313 239.404 219.172C253.443 204.558 243.218 169.772 222.412 149.131C201.606 128.49 178.795 135.281 176.373 155.136C156.741 158.238 150.768 181.413 171.574 202.054Z" fill="#FF7800"/>
<path d="M171.574 202.054C192.38 222.694 217.888 197.313 239.404 219.172C253.443 204.558 243.218 169.772 222.412 149.131C201.606 128.49 178.795 135.281 176.373 155.136C156.741 158.238 150.768 181.413 171.574 202.054Z" fill="#E1004C"/>
<path d="M117.366 176.005C101.152 194.56 123.858 216.097 106.659 235.298C119.698 247.135 148.37 237.428 164.584 218.873C180.798 200.318 173.857 180.678 157.044 179.05C153.375 162.082 133.58 157.45 117.366 176.005Z" fill="#F03C79"/>
<path d="M114.027 124.316C88.7723 117.892 80.8496 149.171 54.4998 142.131C50.4329 159.845 74.0449 182.038 99.2997 188.463C124.555 194.887 138.87 179.202 131.693 162.756C145.259 151.377 139.282 130.74 114.027 124.316Z" fill="#F03C79"/>
<path d="M171.236 108.372C169.553 83.0501 136.818 83.9521 135.389 57.4425C116.982 58.3459 102.897 86.3214 104.58 111.643C106.263 136.965 125.911 146.185 139.576 135.104C154.825 144.766 172.919 133.694 171.236 108.372Z" fill="#F03C79"/>
<path d="M208.366 147.421C229.072 131.608 211.024 106.209 232.877 89.9178C222.391 75.8624 191.098 80.7092 170.392 96.5219C149.685 112.335 152.194 133.162 168.857 137.643C168.666 155.241 187.659 163.234 208.366 147.421Z" fill="#F03C79"/>
<path d="M170.961 196.49C190.705 212.535 210.977 187.722 231.434 204.765C242.541 190.543 230.926 161.03 211.183 144.985C191.439 128.941 172.075 137.17 171.504 154.836C154.627 159.512 151.217 180.445 170.961 196.49Z" fill="#F03C79"/>
<path d="M116.852 123.474C94.623 121.835 92.0652 152.116 68.8278 150.094C67.7346 167.17 90.6642 183.674 112.893 185.313C135.122 186.951 145.159 170.006 136.903 156.017C146.877 143.181 139.081 125.113 116.852 123.474Z" fill="#F283A8"/>
<path d="M170.297 108.477C163.331 86.8584 134.599 94.917 127.601 72.2101C111.531 77.0854 105.137 104.513 112.102 126.132C119.068 147.751 138.426 151.392 148.103 138.731C163.67 143.734 177.263 130.096 170.297 108.477Z" fill="#F283A8"/>
<path d="M205.312 151.791C220.441 134.617 198.611 113.359 214.665 95.6021C202.137 83.8997 175.071 92.2392 159.942 109.412C144.813 126.585 151.663 145.532 167.633 147.621C171.344 163.916 190.183 168.964 205.312 151.791Z" fill="#F283A8"/>
<path d="M166.354 191.178C186.384 203.83 202.68 178.597 223.477 192.093C232.341 177.687 220.483 154.358 200.453 141.707C180.422 129.055 161.255 136.137 162.551 152.556C147.332 158.767 146.324 178.527 166.354 191.178Z" fill="#F283A8"/>
<path d="M116.553 168.457C105.352 187.795 130.747 204.42 118.767 224.489C133.242 233.548 157.769 220.601 168.97 201.264C180.171 181.926 169.74 164.836 153.863 165.695C147.003 150.605 127.754 149.119 116.553 168.457Z" fill="#F283A8"/>
<ellipse cx="149.288" cy="151.635" rx="14.7125" ry="15.0818" transform="rotate(-24.4483 149.288 151.635)" fill="white"/>
</svg>
