<svg width="170" height="164" viewBox="0 0 170 164" fill="none" xmlns="http://www.w3.org/2000/svg">
<path d="M19.2775 91.7468C35.9077 98.0594 54.3273 89.1996 60.4187 71.9577C66.5102 54.7159 57.9667 35.6212 41.3364 29.3086C24.7061 22.996 11.7607 38.2387 13.825 54.2714C2.1916 65.3232 2.64717 85.4341 19.2775 91.7468Z" fill="#742FAB"/>
<path d="M87.2054 82.3774C88.1225 79.7816 57.2864 42.3211 57.2864 42.3211L39.6132 92.3452C39.6132 92.3452 86.2883 84.9733 87.2054 82.3774Z" fill="#742FAB"/>
<path d="M128.674 29.4782C112.019 35.7252 103.4 54.7861 109.424 72.0518C115.447 89.3175 133.832 98.2498 150.487 92.0027C167.142 85.7557 167.609 65.4537 156.087 54.5491C158.147 38.3315 145.329 23.2311 128.674 29.4782Z" fill="#742FAB"/>
<path d="M82.44 81.9195C83.3469 84.5189 130.198 92.663 130.198 92.663L112.722 42.5697C112.722 42.5697 81.5332 79.32 82.44 81.9195Z" fill="#742FAB"/>
<path d="M52.3768 21.2181C52.3407 39.5792 66.6688 54.4921 84.3795 54.527C102.09 54.5618 116.477 39.7055 116.513 21.3444C116.549 2.98338 98.3072 -4.41272 84.4808 3.08403C70.486 -4.46778 52.413 2.85707 52.3768 21.2181Z" fill="#742FAB"/>
<path d="M84.0936 84.1857C86.7601 84.191 110.172 41.3333 110.172 41.3333L58.7876 41.2321C58.7876 41.2321 81.4272 84.1805 84.0936 84.1857Z" fill="#742FAB"/>
<path d="M71.9339 147.393C83.8116 133.771 82.7903 112.748 69.6529 100.436C56.5154 88.124 36.2367 89.1857 24.359 102.807C12.4813 116.429 21.2624 134.58 36.3747 138.6C41.8994 153.921 60.0562 161.014 71.9339 147.393Z" fill="#742FAB"/>
<path d="M89.0057 78.5906C87.0278 76.737 41.9698 92.3496 41.9698 92.3496L80.0857 128.07C80.0857 128.07 90.9836 80.4443 89.0057 78.5906Z" fill="#742FAB"/>
<path d="M142.414 101.042C130.59 87.3734 110.316 86.2318 97.1297 98.4918C83.9439 110.752 82.8398 131.771 94.6638 145.439C106.488 159.107 124.82 151.949 130.257 136.787C145.533 132.69 154.238 114.71 142.414 101.042Z" fill="#742FAB"/>
<path d="M78.202 76.254C76.2168 78.0998 86.4777 126.186 86.4777 126.186L124.734 90.6159C124.734 90.6159 80.1872 74.4082 78.202 76.254Z" fill="#742FAB"/>
<path d="M32.6593 89.6333C45.8182 94.6283 60.3928 87.6178 65.2126 73.9751C70.0325 60.3324 63.2724 45.2236 50.1136 40.2287C36.9548 35.2338 26.7116 47.2947 28.345 59.9807C19.14 68.7255 19.5005 84.6384 32.6593 89.6333Z" fill="#C891F3"/>
<path d="M86.406 82.2188C87.1316 80.1649 62.7323 50.524 62.7323 50.524L48.7483 90.1059C48.7483 90.1059 85.6803 84.2728 86.406 82.2188Z" fill="#C891F3"/>
<path d="M119.218 40.364C106.039 45.3071 99.2197 60.3891 103.986 74.0507C108.752 87.7123 123.299 94.7801 136.477 89.837C149.656 84.894 150.025 68.83 140.908 60.2016C142.539 47.3693 132.396 35.421 119.218 40.364Z" fill="#C891F3"/>
<path d="M82.6375 81.858C83.355 83.9148 120.426 90.3589 120.426 90.3589L106.598 50.7222C106.598 50.7222 81.9199 79.8012 82.6375 81.858Z" fill="#C891F3"/>
<path d="M58.8439 33.8289C58.8152 48.3572 70.1524 60.1571 84.1662 60.1847C98.1799 60.2123 109.563 48.4571 109.592 33.9288C109.621 19.4005 95.1866 13.5483 84.2463 19.4801C73.1729 13.5047 58.8725 19.3006 58.8439 33.8289Z" fill="#C891F3"/>
<path d="M83.9381 83.6528C86.0479 83.657 104.573 49.7455 104.573 49.7455L63.9145 49.6655C63.9145 49.6655 81.8282 83.6487 83.9381 83.6528Z" fill="#C891F3"/>
<path d="M74.3195 133.664C83.7178 122.886 82.9098 106.251 72.5147 96.5095C62.1196 86.7676 46.0739 87.6078 36.6756 98.3859C27.2773 109.164 34.2254 123.527 46.1831 126.707C50.5545 138.83 64.9212 144.442 74.3195 133.664Z" fill="#C891F3"/>
<path d="M87.8278 79.2243C86.2628 77.7576 50.6103 90.1112 50.6103 90.1112L80.7698 118.375C80.7698 118.375 89.3929 80.691 87.8278 79.2243Z" fill="#C891F3"/>
<path d="M130.082 96.9871C120.726 86.172 104.684 85.2687 94.2503 94.9695C83.8169 104.67 82.9434 121.302 92.2991 132.117C101.655 142.932 116.16 137.268 120.463 125.271C132.55 122.029 139.437 107.802 130.082 96.9871Z" fill="#C891F3"/>
<path d="M79.2729 77.3741C77.7021 78.8346 85.8211 116.883 85.8211 116.883L116.092 88.7381C116.092 88.7381 80.8437 75.9136 79.2729 77.3741Z" fill="#C891F3"/>
<path d="M43.6507 84.9518C53.7802 88.7968 64.9995 83.4003 68.7097 72.8984C72.42 62.3964 67.2162 50.7659 57.0868 46.9209C46.9573 43.0759 39.0723 52.3602 40.3297 62.1257C33.2438 68.8573 33.5213 81.1068 43.6507 84.9518Z" fill="#E5C3FF"/>
<path d="M85.0222 79.245C85.5808 77.6638 66.7986 54.8468 66.7986 54.8468L56.034 85.3163C56.034 85.3163 84.4636 80.8261 85.0222 79.245Z" fill="#E5C3FF"/>
<path d="M110.286 47.0259C100.141 50.8309 94.8915 62.4408 98.5603 72.9573C102.229 83.4738 113.427 88.9145 123.572 85.1094C133.716 81.3043 134.001 68.9385 126.983 62.2965C128.238 52.4184 120.43 43.2208 110.286 47.0259Z" fill="#E5C3FF"/>
<path d="M82.123 78.9683C82.6754 80.5516 111.212 85.5121 111.212 85.5121L100.568 55.0004C100.568 55.0004 81.5707 77.3849 82.123 78.9683Z" fill="#E5C3FF"/>
<path d="M63.8079 41.9937C63.7859 53.1774 72.5131 62.2607 83.3006 62.282C94.0882 62.3032 102.851 53.2543 102.873 42.0706C102.895 30.887 91.784 26.382 83.3623 30.9483C74.8382 26.3485 63.8299 30.81 63.8079 41.9937Z" fill="#E5C3FF"/>
<path d="M83.1254 80.3469C84.7496 80.3501 99.0098 54.2456 99.0098 54.2456L67.7116 54.1839C67.7116 54.1839 81.5013 80.3437 83.1254 80.3469Z" fill="#E5C3FF"/>
<path d="M75.7197 118.846C82.9544 110.55 82.3323 97.7444 74.3304 90.2453C66.3284 82.7462 53.9766 83.3929 46.742 91.6897C39.5073 99.9866 44.8559 111.043 54.0608 113.491C57.4258 122.823 68.4851 127.143 75.7197 118.846Z" fill="#E5C3FF"/>
<path d="M86.118 76.9415C84.9133 75.8124 57.4686 85.322 57.4686 85.322L80.6849 107.079C80.6849 107.079 87.3228 78.0705 86.118 76.9415Z" fill="#E5C3FF"/>
<path d="M118.654 90.6127C111.452 82.2874 99.1025 81.5921 91.0711 89.0596C83.0396 96.5271 82.3672 109.33 89.5691 117.655C96.771 125.98 107.937 121.62 111.249 112.385C120.553 109.89 125.855 98.938 118.654 90.6127Z" fill="#E5C3FF"/>
<path d="M79.5406 75.5152C78.3314 76.6395 84.5813 105.929 84.5813 105.929L107.883 84.263C107.883 84.263 80.7498 74.3909 79.5406 75.5152Z" fill="#E5C3FF"/>
<ellipse cx="83.1441" cy="76.1826" rx="9.64819" ry="10.0025" transform="rotate(0.112844 83.1441 76.1826)" fill="white"/>
</svg>
