<svg width="175" height="161" viewBox="0 0 175 161" fill="none" xmlns="http://www.w3.org/2000/svg">
<path d="M19.8661 90.0657C37.007 96.2642 55.9905 87.5686 62.267 70.6436C68.5436 53.7186 59.7363 34.9734 42.5954 28.7749C25.4546 22.5765 12.1136 37.5383 14.2429 53.2772C2.25378 64.1252 2.72526 83.8673 19.8661 90.0657Z" fill="#392FAB"/>
<path d="M89.8732 80.8746C90.8181 78.3265 59.0328 41.5502 59.0328 41.5502L40.8226 90.655C40.8226 90.655 88.9282 83.4228 89.8732 80.8746Z" fill="#392FAB"/>
<path d="M132.612 28.9492C115.446 35.0801 106.565 53.7905 112.775 70.7401C118.985 87.6897 137.934 96.46 155.099 90.3291C172.264 84.1982 172.744 64.2687 160.867 53.563C162.989 37.6431 149.777 22.8183 132.612 28.9492Z" fill="#392FAB"/>
<path d="M84.965 80.4243C85.9 82.9761 134.188 90.9753 134.188 90.9753L116.172 41.7992C116.172 41.7992 84.0301 77.8724 84.965 80.4243Z" fill="#392FAB"/>
<path d="M53.9734 20.8348C53.9379 38.859 68.7068 53.4998 86.9606 53.5357C105.214 53.5717 120.041 38.9892 120.076 20.9649C120.112 2.94066 101.31 -4.32153 87.0601 3.03637C72.6354 -4.37827 54.0089 2.81047 53.9734 20.8348Z" fill="#392FAB"/>
<path d="M86.6652 82.6502C89.4134 82.6556 113.539 40.5862 113.539 40.5862L60.579 40.4819C60.579 40.4819 83.917 82.6448 86.6652 82.6502Z" fill="#392FAB"/>
<path d="M74.1386 144.695C86.3792 131.325 85.3246 110.687 71.7831 98.5995C58.2416 86.5122 37.3411 87.5525 25.1006 100.923C12.86 114.294 21.9121 132.113 37.4882 136.06C43.1838 151.101 61.898 158.066 74.1386 144.695Z" fill="#392FAB"/>
<path d="M91.7273 77.1577C89.6885 75.3379 43.2503 90.6598 43.2503 90.6598L82.5385 125.729C82.5385 125.729 93.766 78.9775 91.7273 77.1577Z" fill="#392FAB"/>
<path d="M146.776 99.2014C134.588 85.7827 113.692 84.66 100.103 96.6939C86.5136 108.728 85.3778 129.361 97.5656 142.78C109.753 156.199 128.647 149.173 134.25 134.29C149.993 130.269 158.963 112.62 146.776 99.2014Z" fill="#392FAB"/>
<path d="M80.5888 74.8624C78.5429 76.6742 89.1231 123.879 89.1231 123.879L128.549 88.9654C128.549 88.9654 82.6347 73.0506 80.5888 74.8624Z" fill="#392FAB"/>
<path d="M33.6521 87.9917C47.2149 92.8962 62.2357 86.0158 67.2021 72.6238C72.1684 59.2318 65.1996 44.3995 51.6368 39.4949C38.074 34.5904 27.5179 46.429 29.2026 58.8825C19.7162 67.466 20.0893 83.0871 33.6521 87.9917Z" fill="#91A1F3"/>
<path d="M89.0457 80.7189C89.7934 78.7026 64.643 49.6031 64.643 49.6031L50.234 88.4577C50.234 88.4577 88.2979 82.7351 89.0457 80.7189Z" fill="#91A1F3"/>
<path d="M122.864 39.6348C109.282 44.4859 102.255 59.2906 107.168 72.7021C112.082 86.1136 127.075 93.0531 140.658 88.202C154.24 83.3509 154.619 67.5816 145.222 59.1106C146.901 46.5138 136.446 34.7837 122.864 39.6348Z" fill="#91A1F3"/>
<path d="M85.1653 80.3647C85.905 82.3838 124.114 88.7132 124.114 88.7132L109.858 49.8023C109.858 49.8023 84.4255 78.3455 85.1653 80.3647Z" fill="#91A1F3"/>
<path d="M60.6399 33.2137C60.6118 47.4755 72.2977 59.0601 86.7412 59.0885C101.185 59.117 112.916 47.5785 112.944 33.3167C112.972 19.0549 98.0951 13.3086 86.8199 19.1306C75.4063 13.2637 60.668 18.9518 60.6399 33.2137Z" fill="#91A1F3"/>
<path d="M86.5073 82.1257C88.6818 82.13 107.772 48.8424 107.772 48.8424L65.8664 48.7598C65.8664 48.7598 84.3327 82.1215 86.5073 82.1257Z" fill="#91A1F3"/>
<path d="M76.5966 131.219C86.282 120.639 85.4475 104.31 74.7328 94.7455C64.018 85.1813 47.4803 86.0045 37.7949 96.5841C28.1094 107.164 35.2719 121.263 47.5967 124.387C52.1033 136.288 66.9111 141.799 76.5966 131.219Z" fill="#91A1F3"/>
<path d="M90.514 77.7788C88.9009 76.3389 52.1564 88.4624 52.1564 88.4624L83.2434 116.211C83.2434 116.211 92.1272 79.2188 90.514 77.7788Z" fill="#91A1F3"/>
<path d="M134.066 95.2206C124.422 84.603 107.888 83.7147 97.1356 93.2366C86.3832 102.758 85.4845 119.085 95.1281 129.702C104.772 140.32 119.721 134.761 124.155 122.984C136.612 119.803 143.71 105.838 134.066 95.2206Z" fill="#91A1F3"/>
<path d="M81.6984 75.9633C80.0796 77.3969 88.4513 114.748 88.4513 114.748L119.647 87.1224C119.647 87.1224 83.3173 74.5297 81.6984 75.9633Z" fill="#91A1F3"/>
<path d="M44.9828 83.3985C55.4233 87.174 66.9861 81.8776 70.8091 71.5686C74.6321 61.2597 69.2676 49.842 58.8272 46.0665C48.3868 42.2911 40.2608 51.4043 41.5577 60.9908C34.2552 67.5982 34.5424 79.6231 44.9828 83.3985Z" fill="#C3D0FF"/>
<path d="M87.6253 77.8C88.2009 76.2479 68.8405 53.8475 68.8405 53.8475L57.7487 83.7571C57.7487 83.7571 87.0497 79.352 87.6253 77.8Z" fill="#C3D0FF"/>
<path d="M113.658 46.173C103.203 49.9073 97.7931 61.3037 101.576 71.6277C105.358 81.9516 116.9 87.2935 127.355 83.5592C137.81 79.8249 138.102 67.6859 130.868 61.1651C132.161 51.4684 124.113 42.4387 113.658 46.173Z" fill="#C3D0FF"/>
<path d="M84.6334 77.5272C85.2029 79.0815 114.615 83.9538 114.615 83.9538L103.641 54.0008C103.641 54.0008 84.064 75.9729 84.6334 77.5272Z" fill="#C3D0FF"/>
<path d="M65.7589 41.229C65.7373 52.2076 74.733 61.1252 85.8513 61.1471C96.9697 61.169 106 52.2869 106.022 41.3083C106.044 30.3298 94.5913 25.9064 85.9119 30.3881C77.1259 25.8719 65.7805 30.2505 65.7589 41.229Z" fill="#C3D0FF"/>
<path d="M85.6739 78.881C87.3478 78.8843 102.043 53.26 102.043 53.26L69.7849 53.1965C69.7849 53.1965 84 78.8777 85.6739 78.881Z" fill="#C3D0FF"/>
<path d="M78.0409 116.673C85.4966 108.529 84.8543 95.9591 76.6062 88.5967C68.3581 81.2344 55.6277 81.8681 48.172 90.012C40.7163 98.156 46.2299 109.01 55.7173 111.414C59.1864 120.575 70.5852 124.817 78.0409 116.673Z" fill="#C3D0FF"/>
<path d="M88.7535 75.538C87.5117 74.4295 59.2264 83.762 59.2264 83.762L83.1567 105.123C83.1567 105.123 89.9953 76.6464 88.7535 75.538Z" fill="#C3D0FF"/>
<path d="M122.288 88.9621C114.864 80.7889 102.137 80.1051 93.8595 87.4348C85.5825 94.7646 84.8906 107.332 92.3142 115.506C99.7377 123.679 111.246 119.4 114.658 110.334C124.248 107.886 129.711 97.1354 122.288 88.9621Z" fill="#C3D0FF"/>
<path d="M81.9737 74.138C80.7276 75.2416 87.172 103.994 87.172 103.994L111.186 82.7281C111.186 82.7281 83.2199 73.0345 81.9737 74.138Z" fill="#C3D0FF"/>
<ellipse cx="85.6864" cy="74.7927" rx="9.94404" ry="9.81899" transform="rotate(0.112844 85.6864 74.7927)" fill="white"/>
</svg>
