<svg width="43" height="121" viewBox="0 0 43 121" fill="none" xmlns="http://www.w3.org/2000/svg">
<path d="M35.4319 5.07159L31.1198 37.2904C29.5337 49.1406 30.5007 61.193 33.9559 72.6388V72.6388C36.3629 80.6124 37.5683 88.9002 37.5322 97.2291L37.4487 116.51" stroke="#5E8D4F" stroke-width="9" stroke-linecap="round"/>
<path d="M1 74.3588L39 114C37.449 108.539 35.5102 101.056 26.9796 91.3479C18.449 81.6398 7.39796 76.9881 1 74.3588Z" fill="#3C652F"/>
<path d="M13.0204 96.6521C21.551 106.36 32.602 111.012 39 113.641L21.9588 92.5447L0.999992 74C2.55101 79.4608 4.48979 86.9441 13.0204 96.6521Z" fill="#3C652F"/>
<path d="M1.09766 74.1008C6.17079 82.0223 20.466 100.697 38.613 113.236" stroke="#2A501E" stroke-linecap="round"/>
</svg>
