<svg width="60" height="132" viewBox="0 0 60 132" fill="none" xmlns="http://www.w3.org/2000/svg">
<path d="M20.6967 5.22103C20.6967 5.22103 20.8337 29.1219 20.8337 35.951V35.951C20.8337 51.4635 7.63072 65.7337 15.9925 78.7949L16.3418 79.3406C19.2739 83.9205 20.8208 89.2504 20.7967 94.6898L20.6957 117.424" stroke="#5E8D4F" stroke-width="9" stroke-linecap="round"/>
<path d="M17.6975 122.895C14.2504 93.945 38.4866 85.0146 51.0355 84.1682C47.8225 114.316 42.0211 125.103 17.6975 122.895Z" fill="#3C652F" stroke="#3C652F" stroke-width="3"/>
<path d="M16.4461 122.09L22.2727 115.81M49.4633 86.4988L39.7524 96.967M39.7524 96.967L39.7307 90.2693M39.7524 96.967L46.1403 99.4016M39.7524 96.967L29.653 107.854M29.653 107.854L31.7171 96.8155M29.653 107.854L41.8852 108.363M29.653 107.854L22.2727 115.81M22.2727 115.81L34.8035 118.85M22.2727 115.81L22.9165 104.527" stroke="#2A501E" stroke-width="0.8"/>
<rect x="15" y="124" width="16" height="4" fill="white"/>
</svg>
