<svg width="82" height="125" viewBox="0 0 82 125" fill="none" xmlns="http://www.w3.org/2000/svg">
<path d="M38.7096 5.13988C40.0701 23.5464 52.4098 20.4426 61.1883 30.2478C69.9667 40.0531 57.9926 50.8851 47.4896 56.4961C46.6889 56.9238 45.582 57.3691 44.2388 57.824C32.6831 61.7379 34.6826 77.2796 38.4221 88.893V88.893C41.4965 98.4411 38.6847 114.629 38.6847 114.629" stroke="#5E8D4F" stroke-width="9" stroke-linecap="round"/>
<path d="M32.0503 47.4915C39.5525 53.1119 40.266 56.9897 35.5429 65.0938C21.6822 59.8263 21.6929 55.8711 20.8709 48.9257C20.8709 48.9257 21.8068 34.6754 23.3805 37.9377C24.9542 41.2 32.0503 47.4915 32.0503 47.4915Z" fill="#3C652F" stroke="#3C652F" stroke-width="3"/>
<path d="M35.254 64.0117L32.7572 58.9069M23.9048 40.808L27.9581 49.095M27.9581 49.095L24.9579 46.5529M27.9581 49.095L28.5732 45.9524M27.9581 49.095L30.2604 53.8021M30.2604 53.8021L24.6771 50.8281M30.2604 53.8021L31.5742 49.2595M30.2604 53.8021L32.7572 58.9069M32.7572 58.9069L25.11 55.1256M32.7572 58.9069L34.9088 52.9341" stroke="#2A501E" stroke-width="0.8"/>
<path d="M80.6342 70.1118L33.0038 119.268C38.9067 117.758 46.9623 115.954 58.4883 105.023C70.0142 94.0921 76.7819 78.9098 80.6342 70.1118Z" fill="#3C652F"/>
<path d="M55.5195 84.4038C43.9936 95.3347 37.2259 110.517 33.3736 119.315L58.153 97.6985L81.004 70.1583C75.1012 71.6691 67.0455 73.473 55.5195 84.4038Z" fill="#3C652F"/>
<path d="M80.8828 69.2839C71.8154 75.5074 50.022 93.5146 33.86 117.814" stroke="#2A501E" stroke-linecap="round"/>
<rect x="33" y="114" width="18" height="7" fill="white"/>
</svg>
